<?xml version="1.0" encoding="utf-8"?>
<!-- Generator: Adobe Illustrator 26.3.1, SVG Export Plug-In . SVG Version: 6.00 Build 0)  -->
<svg version="1.1" id="Layer_1" xmlns="http://www.w3.org/2000/svg" xmlns:xlink="http://www.w3.org/1999/xlink" x="0px" y="0px"
	 viewBox="0 0 100 100" style="enable-background:new 0 0 100 100;" xml:space="preserve">
<style type="text/css">
	.st0{fill:#FFFFFF;}
</style>
<g>
	<path class="st0" d="M100,28.3c0,4.3,0,8.6,0,12.9c0,0-0.1,0.1-0.1,0.1c-1.1,3.5-3.1,5-6.8,5c-0.7,0-1.4,0-2.2,0c0,0.5,0,0.9,0,1.3
		c0,10.9,0,21.8,0,32.7c0,4-2.6,6.5-6.5,6.5c-22.9,0-45.8,0-68.6,0c-0.5,0-1.1,0-1.6-0.1c-3-0.7-4.9-3.1-4.9-6.4
		c0-10.9,0-21.9,0-32.8c0-0.4,0-0.7,0-1.2c-1.1,0-2,0-3,0c-2.7-0.1-4.5-1.4-5.7-3.8c-0.2-0.4-0.3-0.9-0.5-1.4c0-4.4,0-8.7,0-13.1
		c0.1-0.1,0.1-0.2,0.2-0.3c0.9-3.1,3.2-4.7,6.4-4.8c0.8,0,1.6,0,2.5,0c0-0.4,0-0.8,0-1.1c0-3.2,0-6.4,0-9.5c0.1-4.1,1.8-7.4,5-9.9
		c1.8-1.4,3.8-2,5.9-2.5C40,0,60,0,79.9,0c0.1,0,0.2,0.1,0.4,0.1C86.8,1.4,90.9,6.3,90.9,13c0,3,0,6,0,9c0,0.3,0,0.7,0,1.1
		c1.1,0,2,0,3,0c1.8,0,3.4,0.6,4.5,2C99,26,99.4,27.2,100,28.3z M33.8,61.7c0,0,0,0.1,0,0.1c4.7,0,9.3,0,14,0c0-13.4,0-26.7,0-40
		c-11.5,0-23,0-34.5,0c0,13.4,0,26.7,0,40.1c3.2,0,6.3,0,9.4,0c0.3,0,0.6-0.2,0.9-0.3c3.5-1.5,7-3.1,10.5-4.6
		c3.6-1.6,5.4-4.4,5.4-8.3c0-2.7,0-5.3,0-8c0-1.4,0.9-2.3,2.1-2.3c1.2,0,2,0.9,2,2.3c0,2.7,0,5.4,0,8.1c-0.1,5.6-2.6,9.5-7.7,11.9
		C35.3,61.1,34.6,61.4,33.8,61.7z M52.2,21.8c0,13.4,0,26.7,0,40c4.7,0,9.4,0,14.2,0c-1.2-0.6-2.2-1-3.2-1.4c-3.9-2-6.4-5.1-6.8-9.5
		c-0.3-3.5-0.2-7.1-0.2-10.6c0-1,1-1.8,2-1.8c1.3,0,2.1,0.8,2.2,2.2c0,2.8,0,5.5,0,8.3c0.1,3.7,1.8,6.4,5.2,7.9
		c2.5,1.1,5,2.1,7.5,3.3c2.6,1.3,5.2,2,8.1,1.7c1.3-0.1,2.6,0,3.9,0c0.5,0,1,0,1.5,0c0-13.4,0-26.7,0-40.1
		C75.1,21.8,63.7,21.8,52.2,21.8z M75.7,80.7c3.2,0,5.9-2.6,5.9-5.8c0-3.1-2.5-5.7-5.7-5.8C72.7,69,70,71.6,70,74.8
		C69.9,78,72.5,80.6,75.7,80.7z M24.2,69.1c-3.2,0-5.7,2.6-5.7,5.8c0,3.2,2.6,5.8,5.8,5.8c3.2,0,5.8-2.7,5.8-5.9
		C30,71.6,27.4,69.1,24.2,69.1z M50,72.8c-3.6,0-7.1,0-10.7,0c-0.5,0-1.1,0.1-1.6,0.4c-0.8,0.4-1.1,1.4-0.8,2.3
		c0.3,0.9,1.1,1.5,2.3,1.5c7.2,0,14.4,0,21.5,0c1.5,0,2.5-0.8,2.5-2.1c0-1.2-1-2-2.5-2C57.1,72.8,53.6,72.8,50,72.8z"/>
	<path class="st0" d="M21.5,100c-0.7-0.3-1.4-0.4-2-0.8c-1.9-1-3-2.7-3.2-4.8c-0.1-1,0-2.1,0-3.2c6.7,0,13.3,0,20,0
		c0.5,3.5,0.1,7.2-5,8.8C28,100,24.7,100,21.5,100z"/>
	<path class="st0" d="M68.8,100c-0.3-0.1-0.7-0.3-1-0.4c-2.4-0.9-4-3.1-4.1-5.6c0-0.9,0-1.8,0-2.8c6.7,0,13.3,0,20,0
		c0.5,3.6-0.1,7.4-5.1,8.8C75.3,100,72,100,68.8,100z"/>
</g>
</svg>
