<?xml version="1.0" encoding="utf-8"?>
<!-- Generator: Adobe Illustrator 26.3.1, SVG Export Plug-In . SVG Version: 6.00 Build 0)  -->
<svg version="1.1" id="Layer_1" xmlns="http://www.w3.org/2000/svg" xmlns:xlink="http://www.w3.org/1999/xlink" x="0px" y="0px"
	 viewBox="0 0 100 66.7" style="enable-background:new 0 0 100 66.7;" xml:space="preserve">
<style type="text/css">
	.st0{fill:#FFFFFF;}
</style>
<g>
	<path class="st0" d="M45.6,0c2.9,0,5.8,0,8.8,0c0.5,0.1,1,0.2,1.5,0.2c4.7,0.3,9.3,0.8,13.9,1.9c4.8,1.2,9.2,3.1,12.1,7.4
		c1.4,2,2.5,4.2,3.7,6.4c0.3,0.6,0.6,0.9,1.3,0.8c1-0.1,2.1-0.1,3.1,0c1.3,0.1,2.3,0.7,2.9,1.9c0.6,1.2,0.5,2.3-0.3,3.4
		C92,23,92,23.2,93.2,23.9c0.5,0.3,1,0.6,1.5,0.9c2,1.1,3.3,2.8,3.7,5c0.4,1.8,0.7,3.6,0.9,5.4c0.3,2.1,0.4,4.2,0.6,6.3
		c0,2.5,0,5,0,7.5c-0.1,0.3-0.1,0.7-0.2,1c-0.6,3.4-1.2,6.8-1.8,10.2c-0.3,1.6-1.2,2.8-3,3.1C95,65,93.9,66,92.5,66.7
		c-4.4,0-8.9,0-13.3,0c-1.4-0.7-2.4-1.7-2.5-3.3c-17.8-3.4-35.5-3.4-53.3,0.1c-0.1,1.7-1.1,2.6-2.5,3.3c-4.4,0-8.9,0-13.3,0
		C6.1,66,5,65,5,63.3c-1.7-0.4-2.6-1.5-3-3.1c-0.3-1.4-0.7-2.8-0.9-4.3c-0.4-2.4-0.7-4.8-1.1-7.2c0-2.4,0-4.7,0-7.1
		c0.1-0.3,0.1-0.7,0.2-1c0.2-2.4,0.5-4.8,0.7-7.1c0.4-4.4,1.8-8,6.3-9.8C8,23.4,8,22.8,7.4,22.1c-0.9-1.1-1-2.3-0.4-3.5
		c0.6-1.2,1.7-1.8,3-1.9c1,0,2-0.1,3,0c0.7,0,1-0.2,1.3-0.8c0.6-1.4,1.3-2.7,2.1-4C18.9,7.6,22.3,4.5,27,3c4.6-1.5,9.2-2.2,14-2.6
		C42.5,0.3,44.1,0.1,45.6,0z M49.9,21.4c0,0.1,0,0.1,0,0.2c1.9,0,3.8,0,5.7,0c7.5,0.2,14.9,0.5,22.4,0.7c2,0.1,2.7-1.1,1.9-2.9
		c-0.6-1.2-1.2-2.3-1.8-3.5c-1.9-3.9-5-6.1-9.2-7.1C64.2,7.6,59.5,7,54.6,6.8c-7.7-0.4-15.3,0.1-22.9,1.7c-4.7,1-8.2,3.4-10.2,7.8
		c-0.3,0.7-0.6,1.3-1,2c-1.6,2.8-1.1,4.1,2.6,3.9C32.1,21.9,41,21.7,49.9,21.4z M50.1,53.1c6.1,0,12.1,0.1,18.2-0.1
		c1.3,0,2.6-0.7,3.7-1.4c1.9-1.3,1.8-3.4-0.2-4.6c-1.1-0.6-2.3-1.1-3.5-1.5c-11.8-3.1-23.6-3-35.4-0.3c-1.7,0.4-3.4,1.2-4.9,2.1
		c-1.7,1-1.7,2.6-0.2,3.9c1.2,1.1,2.5,1.7,4.1,1.8C37.9,53.2,44,53.1,50.1,53.1z M14.5,36.7c2.9-0.2,5.3-0.4,7.8-0.7
		c0.4,0,0.9-0.4,1-0.7c0.1-0.3-0.2-0.8-0.4-1.1c-0.3-0.3-0.7-0.5-1-0.7c-2.9-1.7-6.2-2.6-9.5-3.3C11,29.9,9.5,30,8.2,30
		c-0.4,0-1.1,0.4-1.3,0.9c-1.1,2.4,0.3,5.1,2.8,5.5C11.4,36.7,13.2,36.6,14.5,36.7z M85.5,36.7c1.3-0.1,3,0,4.7-0.3
		c2.1-0.3,3-1.4,3.1-3.5c0.2-2.7-0.4-3.3-3.1-3c-2.4,0.3-4.7,0.8-7,1.5c-2,0.6-3.9,1.6-5.9,2.6c-0.4,0.2-0.7,0.9-0.7,1.3
		c0,0.2,0.7,0.6,1.2,0.7C80.3,36.3,82.7,36.5,85.5,36.7z"/>
</g>
</svg>
