<?xml version="1.0" encoding="utf-8"?>
<!-- Generator: Adobe Illustrator 26.3.1, SVG Export Plug-In . SVG Version: 6.00 Build 0)  -->
<svg version="1.1" id="Layer_1" xmlns="http://www.w3.org/2000/svg" xmlns:xlink="http://www.w3.org/1999/xlink" x="0px" y="0px"
	 viewBox="0 0 99.9 100" style="enable-background:new 0 0 99.9 100;" xml:space="preserve">
<style type="text/css">
	.st0{fill:#222222;}
</style>
<g>
	<path class="st0" d="M99.9,27.2c-0.4,1.3-0.7,2.6-1.1,3.9C94.4,43.7,80.4,50.1,68,45.3c-0.4-0.2-1-0.1-1.4,0.1
		c-3.4,1.6-6.8,3.3-10.1,5c-0.9,0.5-1.8,0.7-2.6,0c-0.8-0.7-0.8-1.6-0.4-2.6c1.2-3.5,2.3-7,3.5-10.5c0.1-0.4,0.1-1-0.2-1.4
		c-8.9-14.4-0.3-33,16.4-35.6C73.6,0.2,74,0.1,74.5,0c1.4,0,2.9,0,4.3,0c0.2,0.1,0.4,0.1,0.6,0.2c9.4,1.4,15.8,6.6,19.3,15.5
		c0.5,1.3,0.8,2.7,1.2,4.1C99.9,22.2,99.9,24.7,99.9,27.2z M58.5,45c2.6-1.3,4.9-2.4,7.2-3.6c1.1-0.6,2-0.6,3-0.1
		c3.7,1.7,7.5,2.1,11.5,1.4c10.3-1.9,17.3-11.8,15.7-22.2C94.3,10,84.7,2.8,74.3,4.1c-14.5,1.8-22,18.1-13.9,30.2
		c0.8,1.2,0.9,2.2,0.4,3.5C60,40.1,59.3,42.4,58.5,45z"/>
	<path class="st0" d="M84.7,84.3C78.5,78.1,72.4,72,66.3,65.9c-2.5,2.5-5.1,5-7.6,7.6c-1.1,1.1-2.4,1.9-3.9,2.3
		c-2.2,0.6-4.3,0.3-6.3-1c-2.1-1.4-4.2-2.9-6.2-4.4c-1.1-0.8-1.3-2-0.6-2.9c0.7-1,1.9-1,3-0.2c1.8,1.3,3.7,2.7,5.6,4
		c2,1.4,3.8,1.2,5.5-0.6c2.9-2.9,5.9-5.8,8.8-8.8c1.3-1.3,2.2-1.3,3.5,0c6.8,6.8,13.6,13.6,20.4,20.4c1.3,1.3,1.3,2.2,0,3.5
		c-2.9,2.9-5.8,5.9-8.9,8.8c-5.8,5.5-14.4,6.8-21.7,3.4C32.4,86.2,13.8,67.3,1.8,41.8c-3.5-7.3-2-16.1,3.7-22
		c2.8-2.9,5.7-5.7,8.6-8.6c1.1-1.1,2.2-1.1,3.3,0C24.3,18.1,31.1,25,38,31.8c1.1,1.1,1.1,2.2,0,3.3c-2.9,2.9-5.8,5.8-8.7,8.7
		c-1.9,1.9-2.1,3.7-0.6,5.9c1.1,1.7,2.4,3.3,3.6,5c0.8,1.2,0.8,2.3-0.1,3c-0.9,0.8-2.1,0.5-3-0.7c-1.4-1.8-2.7-3.7-4-5.6
		c-2.2-3.4-1.8-7.3,1-10.2c2.3-2.4,4.7-4.8,7.1-7.1c0.3-0.2,0.6-0.4,0.8-0.6c-6.2-6.2-12.3-12.3-18.4-18.4c-0.1,0.1-0.3,0.2-0.5,0.4
		c-2.3,2.3-4.7,4.6-6.9,7c-4.5,4.8-5.6,11.5-2.9,17.4C17,64.9,35,83.3,59.9,94.7c5.7,2.6,11.2,1.8,16.1-2.1
		C79.1,90.1,81.8,87.1,84.7,84.3z"/>
	<path class="st0" d="M36.7,64.9c-1.1,0-2-0.9-1.9-2c0-1,0.9-1.9,2-1.9c1,0,1.9,0.9,1.9,1.9C38.7,64,37.8,64.9,36.7,64.9z"/>
	<path class="st0" d="M64.8,21.5c1.1,0,2,0.9,2,1.9c0,1-0.9,1.9-1.9,1.9c-1,0-1.9-0.8-2-1.8C62.9,22.5,63.7,21.5,64.8,21.5z"/>
	<path class="st0" d="M76.6,25.4c-1.1,0-2-0.9-2-2c0-1,0.9-1.9,1.9-1.9c1.1,0,2,0.9,2,2C78.5,24.5,77.7,25.4,76.6,25.4z"/>
	<path class="st0" d="M88.4,25.4c-1,0-1.9-0.8-2-1.9c0-1.1,0.8-2,1.9-2c1.1,0,2,0.9,2,2C90.3,24.5,89.4,25.4,88.4,25.4z"/>
</g>
</svg>
