<?xml version="1.0" encoding="utf-8"?>
<!-- Generator: Adobe Illustrator 26.3.1, SVG Export Plug-In . SVG Version: 6.00 Build 0)  -->
<svg version="1.1" id="Layer_1" xmlns="http://www.w3.org/2000/svg" xmlns:xlink="http://www.w3.org/1999/xlink" x="0px" y="0px"
	 viewBox="0 0 145.6 100" style="enable-background:new 0 0 145.6 100;" xml:space="preserve">
<style type="text/css">
	.st0{fill:#FFFFFF;}
</style>
<g>
	<path class="st0" d="M10.5,100c-0.9-0.7-1.4-1.6-1.5-2.9c-0.2-3.4-2.9-5.9-6.3-6.2C0.7,90.7,0,90.1,0,88c0-16.2,0-32.5,0-48.7
		c0-2,0.7-2.7,2.6-2.9c3.6-0.3,6.1-2.9,6.4-6.4c0.2-2,0.9-2.7,2.9-2.7c6.6,0,13.2,0,19.8,0c0.8,0,1.7-0.2,2.5-0.4
		C59,18,83.7,9.3,108.4,0.5c2.4-0.9,3-0.7,4.2,1.6c1.5,2.9,4.6,4.3,7.8,3.5c2.5-0.6,3-0.3,3.9,2.1c2.3,6.1,4.6,12.2,6.8,18.3
		c0.3,0.9,0.8,1.3,1.7,1.2c0.2,0,0.5,0,0.7,0c2.1,0,2.8,0.7,3,2.7c0.3,3.4,2.9,6.1,6.2,6.3c1.3,0.1,2.1,0.6,2.9,1.5
		c0,17.2,0,34.5,0,51.7c-0.7,1-1.7,1.4-3,1.5c-3.2,0.2-5.8,2.9-6.1,6c-0.1,1.3-0.5,2.2-1.5,3C93.6,100,52,100,10.5,100z M47.3,27
		c0,0.1,0,0.2,0.1,0.3c0.5,0,1,0,1.6,0c13.8,0,27.6,0,41.4,0c1.9,0,3,0.8,3,2.3c0,1.5-1.1,2.3-3,2.3c-0.3,0-0.7,0-1,0
		c-24.7,0-49.4,0-74.1,0c-0.6,0-1.1,0-1.8,0c-1.3,4.7-4.2,7.7-8.9,8.9c0,15.3,0,30.6,0,45.9c4.7,1.2,7.6,4.3,8.9,8.8
		c39.6,0,79.2,0,118.7,0c1.2-4.7,4.2-7.6,8.9-8.9c0-15.3,0-30.6,0-45.8c-4.7-1.2-7.6-4.2-8.9-8.9c-0.6,0-1.1,0-1.6,0
		c-9.8,0-19.5,0-29.3,0c-0.5,0-1,0-1.4,0c-1.2-0.2-2-1-2-2.2c0-1.3,0.7-2,2-2.2c0.4-0.1,0.9,0,1.3,0c8,0,15.9,0,23.9,0
		c0.5,0,1,0,1.5,0c0-0.2,0.1-0.3,0.1-0.4c-2-5.3-3.9-10.6-6-15.9c-0.1-0.3-0.8-0.6-1.2-0.6c-3.9,0.1-7.2-1.2-9.6-4.3
		c-0.7-0.9-1.2-0.8-2.1-0.5C92.9,10.8,78,16.1,63.2,21.4C57.9,23.2,52.6,25.1,47.3,27z"/>
	<path class="st0" d="M55.6,75c-11.3,0-22.7,0-34,0c-0.5,0-1,0-1.4,0c-1.2-0.2-2-1-2-2.2c0-1.3,0.7-2,2-2.2c0.4-0.1,0.9,0,1.3,0
		c22.8,0,45.7,0,68.5,0c0.4,0,0.9,0,1.3,0c1.2,0.2,2,1,2,2.2c0,1.3-0.7,2-2,2.2c-0.5,0.1-0.9,0-1.4,0C78.5,75,67,75,55.6,75z"/>
	<path class="st0" d="M50.1,53.3c0-2.5,0-4.9,0-7.4c0-1.7,0.9-2.8,2.3-2.8c1.4,0,2.2,1.1,2.2,2.8c0,5.7,0,11.4,0,17.2
		c0,1.3-0.4,2.4-1.8,2.7c-1.4,0.3-2.2-0.4-2.8-1.6c-1.2-2.5-2.4-4.9-3.7-7.4c-0.2-0.4-0.4-0.8-0.9-1.1c0,2.4,0,4.9,0,7.3
		c0,1.8-0.8,2.8-2.2,2.9c-1.5,0-2.3-1-2.3-2.9c0-5.7,0-11.4,0-17c0-1.3,0.4-2.4,1.8-2.7c1.4-0.3,2.2,0.4,2.8,1.6
		c1.4,2.9,2.8,5.7,4.3,8.6C49.9,53.4,50,53.3,50.1,53.3z"/>
	<path class="st0" d="M81.9,53.3c-1.9,1.5-2.6,1.5-4.6,0c0,3.1,0,6.1,0,9.1c0,2.4-0.8,3.5-2.3,3.5c-1.5,0-2.2-1.1-2.2-3.5
		c0-5.4,0-10.9,0-16.3c0-1.3,0.3-2.4,1.6-2.8c1.4-0.4,2.2,0.4,2.9,1.4c0.7,1.1,1.4,2.1,2.3,3.4c0.8-1.2,1.6-2.3,2.3-3.4
		c0.7-1.1,1.5-1.9,2.9-1.4c1.4,0.4,1.6,1.5,1.6,2.8c0,5.6,0,11.3,0,16.9c0,1.8-0.8,2.8-2.2,2.9c-1.5,0-2.3-1-2.3-2.9
		C81.9,59.8,81.9,56.6,81.9,53.3z"/>
	<path class="st0" d="M61.4,52.3c1.4,0,2.7,0,3.9,0c1.8,0,2.8,0.8,2.9,2.2c0,1.5-1,2.3-2.9,2.3c-1.1,0-2.3,0-3.4,0
		c-0.1,0-0.2,0-0.4,0.1c0,0.8-0.1,1.6,0,2.4c0.2,1.3,1.1,2,2.4,2c1.4,0,2.7,0,4.1,0c1.6,0,2.5,0.9,2.5,2.3c0,1.3-1,2.2-2.6,2.2
		c-1.5,0-2.9,0-4.4,0c-3.7-0.1-6.6-3-6.6-6.6c-0.1-3.2-0.1-6.3,0-9.5c0.1-3.6,3-6.4,6.6-6.6c1.5-0.1,3,0,4.5,0c1.5,0,2.5,1,2.5,2.3
		c0,1.3-1,2.2-2.5,2.2c-1.2,0-2.4,0-3.6,0c-2.3,0-3.1,0.7-3.1,3C61.4,51.2,61.4,51.7,61.4,52.3z"/>
	<path class="st0" d="M97.2,61.4c-1.1,0-2.1,0-3.2,0c-0.2,0.8-0.4,1.7-0.7,2.5c-0.4,1.5-1.6,2.2-2.8,1.9c-1.3-0.4-1.9-1.5-1.5-3
		c1.4-5.8,2.9-11.6,4.4-17.5c0.3-1.2,1-2.1,2.3-2.1c1.3,0,2,0.8,2.3,2.1c1.4,5.8,2.9,11.6,4.4,17.5c0.4,1.6-0.3,2.8-1.7,3.1
		c-1.3,0.3-2.3-0.5-2.8-2C97.6,63,97.4,62.3,97.2,61.4z"/>
	<path class="st0" d="M29.5,61.4c0-4.6,0-9,0-13.6c-0.7,0-1.4,0-2.1,0c-1.4-0.1-2.4-1-2.4-2.3c0-1.2,0.9-2.2,2.3-2.2
		c3,0,6.1,0,9.1,0c1.3,0,2.3,1,2.2,2.3c0,1.2-0.9,2.2-2.3,2.2c-0.7,0-1.4,0-2.2,0c0,4.6,0,9,0,13.6c0.7,0,1.4,0,2.2,0
		c1.4,0.1,2.3,1,2.3,2.2c0,1.2-0.9,2.3-2.2,2.3c-3,0.1-6.1,0-9.1,0c-1.4,0-2.3-1-2.3-2.2c0-1.3,0.9-2.2,2.4-2.3
		C28.1,61.3,28.7,61.4,29.5,61.4z"/>
	<path class="st0" d="M9.1,54.4c0-1.5,0-3,0-4.5c0.1-3.7,3-6.6,6.7-6.7c1.5,0,2.9,0,4.4,0c1.5,0,2.5,1,2.5,2.3c0,1.3-1,2.2-2.6,2.2
		c-1.3,0-2.6,0-3.8,0c-1.8,0-2.6,0.8-2.7,2.6c0,2.8,0,5.7,0,8.5c0,1.7,0.9,2.5,2.6,2.5c1.3,0,2.7,0,4,0c1.6,0,2.5,0.9,2.5,2.3
		c0,1.3-1,2.2-2.6,2.2c-1.4,0-2.8,0-4.3,0c-3.8-0.1-6.7-3-6.8-6.8C9.1,57.6,9.1,56,9.1,54.4z"/>
	<path class="st0" d="M69.4,79.5c4,0,8,0,11.9,0c1.8,0,2.8,0.9,2.8,2.3c0,1.4-1,2.3-2.8,2.3c-8,0-15.9,0-23.9,0
		c-1.8,0-2.8-0.9-2.8-2.3c0-1.4,1-2.3,2.8-2.3C61.4,79.5,65.4,79.5,69.4,79.5z"/>
	<path class="st0" d="M38.6,84.1c-2.8,0-5.7,0-8.5,0c-1.7,0-2.7-0.8-2.7-2.2c0-1.4,1-2.3,2.8-2.3c5.7,0,11.5,0,17.2,0
		c1.7,0,2.7,0.8,2.7,2.2c0,1.4-1,2.3-2.8,2.3C44.4,84.1,41.5,84.1,38.6,84.1z"/>
	<path class="st0" d="M126.4,45.4c-2.6,0-5.1,0-7.7,0c-1.7,0-2.7-0.9-2.7-2.3c0-1.4,1-2.2,2.7-2.2c5,0,10,0,15.1,0
		c1.7,0,2.7,0.9,2.7,2.3c0,1.4-1,2.2-2.7,2.3C131.3,45.5,128.9,45.4,126.4,45.4z"/>
	<path class="st0" d="M126.2,86.4c-2.5,0-4.9,0-7.4,0c-1.8,0-2.8-0.9-2.8-2.3c0-1.4,1-2.2,2.7-2.2c5,0,10,0,14.9,0
		c1.8,0,2.8,0.9,2.8,2.3c0,1.4-1.1,2.2-2.7,2.2C131.2,86.4,128.7,86.4,126.2,86.4z"/>
	<path class="st0" d="M125,52.3c-2.1,0-4.2,0-6.3,0c-1.7,0-2.7-0.9-2.7-2.3c0-1.4,1-2.3,2.7-2.3c4.3,0,8.5,0,12.8,0
		c1.7,0,2.7,0.9,2.7,2.3c0,1.4-1,2.3-2.7,2.3C129.4,52.3,127.2,52.3,125,52.3z"/>
	<path class="st0" d="M125.3,54.5c2.1,0,4.2,0,6.3,0c1.7,0,2.7,0.9,2.7,2.3c0,1.4-1,2.3-2.7,2.3c-4.3,0-8.5,0-12.8,0
		c-1.7,0-2.7-0.9-2.7-2.3c0-1.4,1-2.3,2.7-2.3C120.9,54.5,123.1,54.5,125.3,54.5z"/>
	<path class="st0" d="M125.1,65.9c-2.1,0-4.3,0-6.4,0c-1.7,0-2.7-0.9-2.7-2.3c0-1.4,1-2.3,2.7-2.3c4.3,0,8.5,0,12.8,0
		c1.7,0,2.7,0.9,2.7,2.3c0,1.4-1,2.3-2.7,2.3C129.4,65.9,127.3,65.9,125.1,65.9z"/>
	<path class="st0" d="M125.1,72.7c-2.1,0-4.2,0-6.3,0c-1.8,0-2.8-0.9-2.8-2.3c0-1.4,1-2.2,2.7-2.2c4.3,0,8.5,0,12.8,0
		c1.7,0,2.7,0.9,2.7,2.3c0,1.4-1,2.2-2.7,2.2C129.4,72.7,127.2,72.7,125.1,72.7z"/>
	<path class="st0" d="M125,79.5c-2.1,0-4.3,0-6.4,0c-1.6,0-2.6-0.9-2.6-2.2c0-1.4,1-2.3,2.6-2.3c4.3,0,8.6,0,12.9,0
		c1.6,0,2.6,0.9,2.6,2.2c0,1.4-1,2.3-2.6,2.3C129.4,79.6,127.2,79.5,125,79.5z"/>
	<path class="st0" d="M111.5,41c0,0.8,0.1,1.5,0,2.3c-0.1,1.3-1.1,2.1-2.2,2.1c-1.2,0-2.2-0.9-2.3-2.1c-0.1-1.6-0.1-3.2,0-4.8
		c0.1-1.3,1-2.1,2.2-2.1c1.2,0,2.1,0.9,2.3,2.1c0,0.1,0,0.2,0,0.3C111.5,39.5,111.5,40.3,111.5,41C111.5,41,111.5,41,111.5,41z"/>
	<path class="st0" d="M106.9,52.3c0-0.8-0.1-1.6,0-2.4c0.1-1.3,1-2.1,2.2-2.1c1.2,0,2.2,0.9,2.3,2.1c0.1,1.6,0.1,3.2,0,4.8
		c-0.1,1.3-1,2.1-2.2,2.1c-1.2,0-2.2-0.9-2.3-2.1C106.9,53.9,107,53.1,106.9,52.3z"/>
	<path class="st0" d="M106.9,63.6c0-0.8-0.1-1.6,0-2.4c0.1-1.3,1-2.1,2.2-2.1c1.2,0,2.2,0.9,2.3,2.1c0.1,1.6,0.1,3.2,0,4.8
		c-0.1,1.3-1,2.1-2.2,2.1c-1.2,0-2.2-0.9-2.3-2.1C106.9,65.3,107,64.4,106.9,63.6z"/>
	<path class="st0" d="M111.5,75c0,0.8,0,1.5,0,2.3c-0.1,1.3-1.1,2.2-2.3,2.2c-1.2,0-2.1-0.9-2.2-2.2c-0.1-1.6-0.1-3.1,0-4.7
		c0.1-1.3,1.1-2.2,2.3-2.2c1.2,0,2.1,0.9,2.2,2.2c0,0.1,0,0.2,0,0.3C111.5,73.6,111.5,74.3,111.5,75C111.5,75,111.5,75,111.5,75z"/>
	<path class="st0" d="M106.9,86.4c0-0.8-0.1-1.6,0-2.4c0.1-1.3,1.1-2.1,2.2-2.1c1.2,0,2.2,0.9,2.3,2.1c0.1,1.6,0.1,3.2,0,4.8
		c-0.1,1.3-1.1,2.1-2.2,2.1c-1.2,0-2.2-0.9-2.3-2.1C106.9,88,107,87.2,106.9,86.4z"/>
</g>
</svg>
