<?xml version="1.0" encoding="utf-8"?>
<!-- Generator: Adobe Illustrator 26.3.1, SVG Export Plug-In . SVG Version: 6.00 Build 0)  -->
<svg version="1.1" id="Layer_1" xmlns="http://www.w3.org/2000/svg" xmlns:xlink="http://www.w3.org/1999/xlink" x="0px" y="0px"
	 viewBox="0 0 240.5 100" style="enable-background:new 0 0 240.5 100;" xml:space="preserve">
<style type="text/css">
	.st0{fill:#FFFFFF;}
	.st1{fill:#FAB400;}
	.st2{fill:#A0194E;}
	.st3{fill:#E84A0F;}
	.st4{fill:#9DC41A;}
	.st5{fill:#82CFF5;}
	.st6{fill:#0077A7;}
	.st7{fill:#DBDE47;}
	.st8{fill:#E71D73;}
</style>
<g>
	<path class="st0" d="M57.9,71.8c-2.5,0.9-5.2,1.4-8,1.4c-12.8,0-23.2-10.4-23.2-23.2s10.4-23.2,23.2-23.2c2.2,0,4.4,0.3,6.5,0.9
		h38.5C86.7,11.4,69.7,0,50,0C22.4,0,0,22.4,0,50c0,27.6,22.4,50,50,50c19.8,0,36.9-11.5,45-28.2H57.9z"/>
	<path class="st0" d="M55.3,45.6c-0.1-1.1-0.5-2.1-1.1-3.1c-0.9-1.2-2.3-1.8-4.1-1.8c-2.7,0-4.5,1.3-5.5,4c-0.5,1.4-0.8,3.3-0.8,5.6
		c0,2.2,0.3,4,0.8,5.3c0.9,2.5,2.7,3.8,5.3,3.8c1.9,0,3.2-0.5,3.9-1.5c0.8-1,1.3-2.3,1.4-3.9h8.1c-0.2,2.4-1.1,4.7-2.6,6.8
		c-2.5,3.5-6.2,5.2-11,5.2c-4.9,0-8.4-1.4-10.7-4.3c-2.3-2.9-3.4-6.6-3.4-11.2c0-5.2,1.3-9.2,3.8-12.1c2.5-2.9,6-4.3,10.5-4.3
		c3.8,0,6.9,0.9,9.3,2.6c2.4,1.7,3.8,4.7,4.3,9H55.3z"/>
	<path class="st0" d="M73.5,42h-8v-7.3h8V42z M65.5,45.6h8V65h-8V45.6z"/>
	<path class="st0" d="M100.3,36.5c2,1.6,3,4.4,3,8.1V65h-8.1V46.6c0-1.6-0.2-2.8-0.6-3.7c-0.8-1.6-2.2-2.3-4.4-2.3
		c-2.7,0-4.5,1.1-5.5,3.4c-0.5,1.2-0.8,2.7-0.8,4.6V65H76V34.8h7.7v4.4c1-1.6,2-2.7,2.9-3.4c1.6-1.2,3.7-1.8,6.2-1.8
		C95.8,34,98.3,34.8,100.3,36.5"/>
	<path class="st0" d="M126.9,35.3c2.1,0.9,3.8,2.4,5.2,4.5c1.2,1.8,2,3.9,2.4,6.3c0.2,1.4,0.3,3.4,0.3,6h-22c0.1,3,1.2,5.2,3.2,6.4
		c1.2,0.8,2.7,1.1,4.4,1.1c1.8,0,3.3-0.5,4.4-1.4c0.6-0.5,1.2-1.2,1.6-2.1h8.1c-0.2,1.8-1.2,3.6-2.9,5.5c-2.7,2.9-6.5,4.4-11.4,4.4
		c-4,0-7.6-1.2-10.6-3.7c-3.1-2.5-4.6-6.5-4.6-12.1c0-5.2,1.4-9.3,4.2-12c2.8-2.8,6.4-4.2,10.8-4.2
		C122.4,33.9,124.8,34.4,126.9,35.3 M115.1,42.2c-1.1,1.2-1.8,2.7-2.1,4.7h13.6c-0.1-2.1-0.8-3.7-2.1-4.8c-1.3-1.1-2.8-1.6-4.7-1.6
		C117.8,40.4,116.2,41,115.1,42.2"/>
	<path class="st0" d="M134.6,40.6V35h4.2v-7h7.8v7h4.9v5.6h-4.9v16c0,1.2,0.2,2,0.5,2.3c0.3,0.3,1.3,0.5,2.9,0.5c0.2,0,0.5,0,0.8,0
		c0.3,0,0.5,0,0.8,0v5.9l-3.7,0.1c-3.7,0.1-6.3-0.5-7.7-1.9c-0.9-0.9-1.3-2.3-1.3-4.2V40.6H134.6z"/>
	<path class="st0" d="M174,35.3c2.1,0.9,3.8,2.4,5.2,4.5c1.2,1.8,2,3.9,2.4,6.3c0.2,1.4,0.3,3.4,0.3,6h-22c0.1,3,1.2,5.2,3.2,6.4
		c1.2,0.8,2.7,1.1,4.4,1.1c1.8,0,3.3-0.5,4.4-1.4c0.6-0.5,1.2-1.2,1.6-2.1h8.1c-0.2,1.8-1.2,3.6-2.9,5.5c-2.7,2.9-6.5,4.4-11.4,4.4
		c-4,0-7.6-1.2-10.6-3.7c-3.1-2.5-4.6-6.5-4.6-12.1c0-5.2,1.4-9.3,4.2-12c2.8-2.8,6.4-4.2,10.8-4.2C169.5,33.9,171.9,34.4,174,35.3
		 M162.2,42.2c-1.1,1.2-1.8,2.7-2.1,4.7h13.6c-0.1-2.1-0.8-3.7-2.1-4.8c-1.3-1.1-2.8-1.6-4.7-1.6C164.9,40.4,163.3,41,162.2,42.2"/>
	<path class="st0" d="M203.2,45.6c-0.1-1.1-0.5-2.1-1.1-3.1c-0.9-1.2-2.3-1.8-4.1-1.8c-2.7,0-4.5,1.3-5.5,4
		c-0.5,1.4-0.8,3.3-0.8,5.6c0,2.2,0.3,4,0.8,5.3c0.9,2.5,2.7,3.8,5.3,3.8c1.9,0,3.2-0.5,3.9-1.5c0.8-1,1.3-2.3,1.4-3.9h8.1
		c-0.2,2.4-1.1,4.7-2.6,6.8c-2.5,3.5-6.2,5.2-11,5.2c-4.9,0-8.5-1.4-10.7-4.3c-2.3-2.9-3.4-6.6-3.4-11.2c0-5.2,1.3-9.2,3.8-12.1
		c2.5-2.9,6-4.3,10.5-4.3c3.8,0,6.9,0.9,9.3,2.6c2.4,1.7,3.8,4.7,4.3,9H203.2z"/>
	<path class="st0" d="M235,34.9c1.5,0.6,2.8,1.6,3.7,3c0.8,1.1,1.3,2.3,1.5,3.5c0.2,1.2,0.3,3.1,0.3,5.8V65h-8.1V46.5
		c0-1.6-0.3-2.9-0.8-3.9c-0.7-1.4-2.1-2.1-4.1-2.1c-2.1,0-3.6,0.7-4.7,2.1c-1.1,1.4-1.6,3.4-1.6,6V65h-7.9V28h7.9v10.6
		c1.1-1.8,2.5-3,4-3.7c1.5-0.7,3.1-1,4.7-1C231.8,33.9,233.5,34.2,235,34.9"/>
	<path class="st1" d="M81.1,71.8c-1.3,1.8-2.7,3.5-4.2,5C69.7,84.1,60.2,88,50,88c-10.2,0-19.7-4-26.9-11.1C15.9,69.7,12,60.2,12,50
		c0-10.2,4-19.7,11.1-26.9C30.3,15.9,39.8,12,50,12c10.2,0,19.7,4,26.9,11.1c1.5,1.5,2.8,3.1,4,4.8h3.2c-1.5-2.4-3.3-4.6-5.4-6.6
		C71.1,13.6,60.9,9.3,50,9.3c-10.9,0-21.1,4.2-28.8,11.9C13.6,28.9,9.3,39.1,9.3,50c0,10.9,4.2,21.1,11.9,28.8
		c7.7,7.7,17.9,11.9,28.8,11.9c10.9,0,21.1-4.2,28.8-11.9c2.1-2.1,4-4.4,5.6-6.9H81.1z"/>
	<path class="st2" d="M87.7,71.8c-7.6,13-21.6,21.8-37.7,21.8C25.9,93.6,6.4,74.1,6.4,50C6.4,25.9,25.9,6.4,50,6.4
		c16,0,30,8.6,37.6,21.5h3.6c-2.1-4-4.9-7.6-8.1-10.9C74.2,8.1,62.5,3.2,50,3.2c-12.5,0-24.2,4.9-33.1,13.7
		C8.1,25.8,3.2,37.5,3.2,50c0,12.5,4.9,24.2,13.7,33.1c8.8,8.8,20.6,13.7,33.1,13.7c12.5,0,24.2-4.9,33.1-13.7
		c3.4-3.4,6.1-7.1,8.3-11.2H87.7z"/>
	<path class="st3" d="M77.9,71.8C71.4,80.1,61.3,85.5,50,85.5c-19.6,0-35.5-15.9-35.5-35.5c0-19.6,15.9-35.5,35.5-35.5
		c11.2,0,21.2,5.2,27.7,13.3h3.2c-1.2-1.7-2.5-3.3-4-4.8C69.7,15.9,60.2,12,50,12c-10.2,0-19.7,4-26.9,11.1C15.9,30.3,12,39.8,12,50
		c0,10.2,4,19.7,11.1,26.9C30.3,84.1,39.8,88,50,88c10.2,0,19.7-4,26.9-11.1c1.6-1.6,3-3.3,4.2-5H77.9z"/>
	<path class="st4" d="M68.3,71.8C63.4,76,57,78.5,50,78.5c-15.7,0-28.5-12.8-28.5-28.5c0-15.7,12.8-28.5,28.5-28.5
		c6.8,0,13.1,2.4,18,6.4h3.1c-5.7-5.4-13.2-8.4-21.1-8.4c-8.2,0-15.8,3.2-21.6,9c-5.8,5.8-9,13.5-9,21.6s3.2,15.8,9,21.6
		c5.8,5.8,13.4,9,21.6,9c8.1,0,15.6-3.1,21.4-8.7H68.3z"/>
	<path class="st5" d="M61.6,71.8c-3.5,1.9-7.5,2.9-11.6,2.9c-6.6,0-12.8-2.6-17.5-7.2c-4.7-4.7-7.2-10.9-7.2-17.5
		c0-6.6,2.6-12.8,7.2-17.5c4.7-4.7,10.9-7.2,17.5-7.2c3.9,0,7.7,0.9,11,2.6h3.5c-4.3-2.8-9.3-4.3-14.5-4.3c-7.1,0-13.7,2.8-18.7,7.7
		c-5,5-7.8,11.6-7.8,18.7c0,7.1,2.8,13.7,7.8,18.7c5,5,11.6,7.7,18.7,7.7c5.4,0,10.6-1.6,14.9-4.6H61.6z"/>
	<path class="st6" d="M57.4,71.8c-2.3,0.8-4.8,1.2-7.4,1.2c-12.7,0-23.1-10.4-23.1-23.1c0-12.7,10.4-23.1,23.1-23.1
		c2.3,0,4.4,0.3,6.5,0.9H61c-3.4-1.7-7.1-2.6-11-2.6c-6.6,0-12.8,2.6-17.5,7.2c-4.7,4.7-7.2,10.9-7.2,17.5c0,6.6,2.6,12.8,7.2,17.5
		c4.7,4.7,10.9,7.2,17.5,7.2c4.1,0,8.1-1,11.6-2.9H57.4z"/>
	<path class="st7" d="M71.4,71.8c-5.7,5.6-13.3,8.7-21.4,8.7c-8.2,0-15.8-3.2-21.6-9c-5.8-5.8-9-13.4-9-21.6s3.2-15.8,9-21.6
		c5.8-5.8,13.4-9,21.6-9c7.9,0,15.4,3,21.1,8.4h3c-0.3-0.3-0.6-0.7-0.9-1c-6.2-6.2-14.4-9.6-23.1-9.6c-8.7,0-16.9,3.4-23.1,9.6
		c-6.2,6.2-9.6,14.4-9.6,23.1c0,8.7,3.4,16.9,9.6,23.1c6.2,6.2,14.4,9.6,23.1,9.6c8.7,0,16.9-3.4,23.1-9.6c0.4-0.4,0.8-0.8,1.2-1.3
		H71.4z"/>
	<path class="st8" d="M91.4,71.8c-2.2,4.1-4.9,7.9-8.3,11.2C74.2,91.9,62.5,96.8,50,96.8c-12.5,0-24.2-4.9-33.1-13.7
		C8.1,74.2,3.2,62.5,3.2,50c0-12.5,4.9-24.2,13.7-33.1C25.8,8.1,37.5,3.2,50,3.2c12.5,0,24.2,4.9,33.1,13.7c3.3,3.3,6,7,8.1,10.9
		h3.7c-2.4-4.8-5.6-9.3-9.5-13.2C75.9,5.2,63.4,0,50,0C36.6,0,24.1,5.2,14.6,14.6C5.2,24.1,0,36.6,0,50c0,13.4,5.2,25.9,14.6,35.4
		c9.4,9.4,22,14.6,35.4,14.6c13.4,0,25.9-5.2,35.4-14.6c4-4,7.2-8.6,9.6-13.5H91.4z"/>
</g>
</svg>
