<?xml version="1.0" encoding="utf-8"?>
<!-- Generator: Adobe Illustrator 26.4.1, SVG Export Plug-In . SVG Version: 6.00 Build 0)  -->
<svg version="1.1" id="Layer_1" xmlns="http://www.w3.org/2000/svg" xmlns:xlink="http://www.w3.org/1999/xlink" x="0px" y="0px"
	 viewBox="0 0 142.3 61.4" style="enable-background:new 0 0 142.3 61.4;" xml:space="preserve">
<style type="text/css">
	.st0{fill:#E84916;}
	.st1{fill:#FFFFFF;}
</style>
<path class="st0" d="M0.6,12c0,0-0.1-6.1,7.1-7c7.2-1,49.9-4.7,63.3-4.4c13.4,0.2,52.4,3.1,62.8,4.4c3.7,0.5,7.7,2,8,6.6
	c0.2,4.6,0,37.9,0,37.9s-0.3,6.6-8.9,7.2c-3.4,0.3-50.2,4.3-63.5,4.1c-13.4-0.1-57.8-4-61.3-4.3S0.5,54,0.5,49.4
	C0.5,46.4,0.6,12,0.6,12"/>
<path class="st1" d="M69.9,61.4c-0.2,0-0.4,0-0.6,0c-13.7-0.1-58.7-4-61.3-4.3c-4-0.4-8-2.9-8-7.7C0,46.4,0.1,12.3,0.1,12
	c0-0.3,0.1-6.5,7.5-7.5C14.2,3.6,57.3-0.2,70.9,0c13.7,0.2,52.7,3.2,62.8,4.4c6.7,0.8,8.3,4.3,8.4,7.1c0.2,4.6,0,36.6,0,38l0,0
	c0,0.1-0.1,1.8-1.3,3.6c-1.1,1.7-3.4,3.7-8,4.1c-0.3,0-0.8,0.1-1.5,0.1C100,60,78.3,61.4,69.9,61.4 M69.6,1C54.8,1,14.1,4.6,7.7,5.4
	C4.9,5.8,2.9,7,1.9,9c-0.8,1.5-0.8,2.9-0.8,2.9l0,0c0,0.3,0,34.5-0.1,37.4c0,4.2,3.5,6.4,7.1,6.7c2.6,0.3,47.6,4.2,61.2,4.3
	c7.9,0.1,29.9-1.4,62-4c0.7-0.1,1.2-0.1,1.5-0.1c7.9-0.6,8.4-6.4,8.4-6.8c0-0.8,0.2-33.3,0-37.9c-0.2-3.5-2.7-5.6-7.5-6.2
	c-10.2-1.2-49-4.2-62.7-4.4C70.5,1,70.1,1,69.6,1"/>
<path class="st1" d="M25,49c0-0.5,0.1-1.1,0.3-1.5c0.2-0.5,0.5-0.9,0.8-1.3c0.4-0.4,0.8-0.7,1.3-0.9c0.5-0.2,1-0.3,1.5-0.3
	c0.6,0,1.1,0.1,1.6,0.3c0.5,0.2,0.9,0.5,1.3,0.9c0.4,0.4,0.7,0.8,0.9,1.3c0.2,0.5,0.3,1,0.3,1.5c0,0.5-0.1,1.1-0.3,1.6
	c-0.2,0.5-0.5,0.9-0.8,1.3c-0.2,0.2-0.4,0.4-0.6,0.6c-0.2,0.2-0.5,0.3-0.7,0.4c-0.5,0.2-1,0.3-1.6,0.3c-0.6,0-1.1-0.1-1.6-0.3
	c-0.5-0.2-0.9-0.5-1.3-0.9c-0.4-0.4-0.6-0.8-0.9-1.3c-0.1-0.3-0.2-0.5-0.2-0.8C25,49.5,25,49.2,25,49 M26.5,49
	c0,0.8,0.2,1.4,0.7,1.9c0.5,0.5,1.1,0.8,1.9,0.8c0.7,0,1.3-0.3,1.8-0.8c0.5-0.5,0.7-1.2,0.7-2c0-0.8-0.2-1.4-0.7-2
	c-0.5-0.5-1.1-0.8-1.8-0.8c-0.7,0-1.3,0.3-1.8,0.8C26.7,47.5,26.5,48.2,26.5,49"/>
<path class="st1" d="M41.4,52.8H40V52c-0.3,0.4-0.6,0.6-0.9,0.8C38.8,53,38.4,53,37.9,53c-1,0-1.7-0.3-2.3-0.9
	c-0.5-0.6-0.8-1.5-0.8-2.6v-4.5h1.4v4.1c0,0.8,0.1,1.5,0.4,1.9c0.3,0.4,0.7,0.6,1.3,0.6c0.4,0,0.7-0.1,1-0.3
	c0.3-0.2,0.5-0.4,0.7-0.7c0.1-0.2,0.2-0.4,0.2-0.7c0-0.1,0-0.3,0.1-0.5c0-0.2,0-0.5,0-0.8v-3.6h1.4V52.8z"/>
<polygon class="st1" points="44.1,52.8 44.1,46.3 43,46.3 43,45.1 44.1,45.1 44.1,42.5 45.5,42.5 45.5,45.1 46.7,45.1 46.7,46.3 
	45.5,46.3 45.5,52.8 "/>
<rect x="48.2" y="42.5" class="st1" width="1.4" height="10.3"/>
<path class="st1" d="M52.9,49.5c0.1,0.6,0.4,1.2,0.9,1.6c0.5,0.4,1,0.6,1.7,0.6c0.5,0,0.9-0.1,1.3-0.3c0.4-0.2,0.7-0.5,0.9-0.9h1.6
	c-0.4,0.9-0.9,1.5-1.5,2c-0.6,0.5-1.4,0.7-2.3,0.7c-0.6,0-1.1-0.1-1.6-0.3c-0.5-0.2-0.9-0.5-1.3-0.9c-0.4-0.4-0.6-0.8-0.9-1.3
	c-0.1-0.3-0.2-0.5-0.2-0.8c-0.1-0.3-0.1-0.5-0.1-0.8c0-0.5,0.1-1.1,0.3-1.5c0.2-0.5,0.5-0.9,0.8-1.3c0.4-0.4,0.8-0.7,1.3-1
	c0.5-0.2,1-0.3,1.6-0.3c0.7,0,1.3,0.2,1.9,0.5c0.6,0.3,1.1,0.8,1.5,1.3c0.1,0.2,0.2,0.3,0.3,0.5c0.1,0.2,0.2,0.4,0.2,0.6
	c0.1,0.4,0.2,0.9,0.2,1.4v0.2H52.9z M58,48.2c-0.2-0.6-0.5-1.1-0.9-1.5c-0.4-0.4-0.9-0.5-1.6-0.5c-0.6,0-1.1,0.2-1.6,0.5
	c-0.4,0.4-0.8,0.8-0.9,1.5H58z"/>
<polygon class="st1" points="61.8,52.8 61.8,46.3 60.7,46.3 60.7,45.1 61.8,45.1 61.8,42.5 63.2,42.5 63.2,45.1 64.3,45.1 
	64.3,46.3 63.2,46.3 63.2,52.8 "/>
<path class="st1" d="M78.5,50.2c-0.3,0.9-0.8,1.6-1.5,2.1c-0.6,0.5-1.4,0.7-2.4,0.7c-0.6,0-1.1-0.1-1.6-0.3
	c-0.2-0.1-0.5-0.2-0.7-0.4c-0.2-0.1-0.4-0.3-0.6-0.5c-0.4-0.4-0.6-0.8-0.9-1.3c-0.1-0.3-0.2-0.5-0.2-0.8c-0.1-0.3-0.1-0.5-0.1-0.8
	c0-0.5,0.1-1,0.3-1.5c0.2-0.5,0.5-0.9,0.8-1.3c0.4-0.4,0.9-0.8,1.4-1c0.5-0.2,1-0.3,1.6-0.3c0.9,0,1.7,0.2,2.3,0.7
	c0.7,0.5,1.1,1.2,1.4,2.1H77c-0.2-0.5-0.6-0.8-0.9-1.1c-0.4-0.2-0.9-0.4-1.4-0.4c-0.7,0-1.3,0.3-1.8,0.8c-0.5,0.5-0.7,1.2-0.7,1.9
	c0,0.8,0.2,1.4,0.7,1.9c0.5,0.5,1.1,0.8,1.8,0.8c0.5,0,0.9-0.1,1.3-0.4c0.4-0.3,0.7-0.6,0.9-1.1H78.5z"/>
<path class="st1" d="M81.6,49.5c0.1,0.6,0.4,1.2,0.9,1.6c0.5,0.4,1,0.6,1.7,0.6c0.5,0,0.9-0.1,1.3-0.3c0.4-0.2,0.7-0.5,0.9-0.9h1.6
	c-0.4,0.9-0.9,1.5-1.5,2c-0.6,0.5-1.4,0.7-2.3,0.7c-0.6,0-1.1-0.1-1.6-0.3c-0.5-0.2-0.9-0.5-1.3-0.9c-0.4-0.4-0.6-0.8-0.9-1.3
	c-0.1-0.3-0.2-0.5-0.2-0.8c-0.1-0.3-0.1-0.5-0.1-0.8c0-0.5,0.1-1.1,0.3-1.5c0.2-0.5,0.5-0.9,0.8-1.3c0.4-0.4,0.8-0.7,1.3-1
	c0.5-0.2,1-0.3,1.6-0.3c0.7,0,1.3,0.2,1.9,0.5c0.6,0.3,1.1,0.8,1.5,1.3c0.1,0.2,0.2,0.3,0.3,0.5c0.1,0.2,0.2,0.4,0.2,0.6
	c0.1,0.4,0.2,0.9,0.2,1.4v0.2H81.6z M86.6,48.2c-0.2-0.6-0.5-1.1-0.9-1.5c-0.4-0.4-0.9-0.5-1.6-0.5c-0.6,0-1.1,0.2-1.6,0.5
	c-0.4,0.4-0.8,0.8-0.9,1.5H86.6z"/>
<path class="st1" d="M91.4,52.8H90v-7.8h1.4V46c0.3-0.3,0.6-0.6,1-0.8c0.4-0.2,0.8-0.2,1.2-0.2c1,0,1.8,0.3,2.4,0.9
	c0.5,0.6,0.8,1.5,0.8,2.6v4.4h-1.4v-4.1c0-0.8-0.2-1.4-0.5-1.8c-0.3-0.4-0.8-0.6-1.4-0.6c-0.7,0-1.2,0.2-1.5,0.7
	c-0.3,0.5-0.5,1.2-0.5,2.3V52.8z"/>
<polygon class="st1" points="99.4,52.8 99.4,46.3 98.3,46.3 98.3,45.1 99.4,45.1 99.4,42.5 100.8,42.5 100.8,45.1 101.9,45.1 
	101.9,46.3 100.8,46.3 100.8,52.8 "/>
<path class="st1" d="M104.5,49.5c0.1,0.6,0.4,1.2,0.9,1.6c0.5,0.4,1,0.6,1.7,0.6c0.5,0,0.9-0.1,1.3-0.3c0.4-0.2,0.7-0.5,0.9-0.9h1.6
	c-0.4,0.9-0.9,1.5-1.5,2c-0.6,0.5-1.4,0.7-2.3,0.7c-0.6,0-1.1-0.1-1.6-0.3c-0.5-0.2-0.9-0.5-1.3-0.9c-0.4-0.4-0.6-0.8-0.9-1.3
	c-0.1-0.3-0.2-0.5-0.2-0.8c-0.1-0.3-0.1-0.5-0.1-0.8c0-0.5,0.1-1.1,0.3-1.5c0.2-0.5,0.5-0.9,0.8-1.3c0.4-0.4,0.8-0.7,1.3-1
	c0.5-0.2,1-0.3,1.6-0.3c0.7,0,1.3,0.2,1.9,0.5c0.6,0.3,1.1,0.8,1.5,1.3c0.1,0.2,0.2,0.3,0.3,0.5c0.1,0.2,0.2,0.4,0.2,0.6
	c0.1,0.4,0.2,0.9,0.2,1.4v0.2H104.5z M109.6,48.2c-0.2-0.6-0.5-1.1-0.9-1.5c-0.4-0.4-1-0.5-1.6-0.5c-0.6,0-1.1,0.2-1.6,0.5
	c-0.4,0.4-0.8,0.8-0.9,1.5H109.6z"/>
<path class="st1" d="M114.4,52.8H113v-7.8h1.3V46c0.2-0.3,0.5-0.6,0.8-0.8c0.3-0.2,0.7-0.3,1-0.3v1.5c-0.3,0-0.6,0-0.8,0.1
	c-0.2,0.1-0.4,0.2-0.6,0.4c-0.3,0.3-0.4,0.8-0.4,1.6V52.8z"/>
<path class="st1" d="M71.3,56.7c-1.2,0-2.3,0-3.4-0.1c-11.1-0.4-52.1-2.9-59.4-4.3c-1.4-0.3-3.7-0.7-3.8-2.9
	c-0.1-1.7-0.1-35.7-0.1-37.1l0-0.1c0.2-1.1,1.2-3.2,3.7-3.3c0.7,0,2.9-0.2,6.4-0.5c12.6-1.1,42-3.6,57-3.5C83.2,5,116,6.9,133.3,9
	c3.4,0.4,4.2,2.3,4.2,3.9c0,2.4-0.1,35.8-0.1,36.1c0,1-0.6,3.1-3.3,3.4C132.2,52.5,90.6,56.7,71.3,56.7 M5.7,12.3
	c0,1.5,0,35.3,0.1,37c0.1,1.2,1.1,1.6,3,2c7,1.3,48.5,3.9,59.2,4.2c1,0,2.1,0.1,3.3,0.1c19.2,0,60.8-4.1,62.7-4.3
	c2.4-0.2,2.4-2.2,2.4-2.3c0-0.4,0.1-33.8,0.1-36.1c0-1.7-1.1-2.6-3.3-2.9c-17.3-2.1-50-4-61.4-4.1C56.8,5.8,27.4,8.3,14.8,9.4
	C11.4,9.7,9.1,9.9,8.4,10C6.2,10.1,5.8,12,5.7,12.3"/>
<path class="st1" d="M114.7,16.9c-5.6-0.5-11.2,4.5-12,5.7c-0.8,1.2-1.1,0.6-1,0.3c0.4-1.5-0.4-5.3-2.9-5.9c-4-0.8-7.3,1.2-8.1,2
	c-0.9,0.7-0.9,0.6-1.1,0.2c-1.6-3.2-5.4-1.7-6.3-1.4c-1.4,0.5-1.9,2-2.3,0.7c-0.4-1.4-5.1-3.7-10.7-1.4c-8.4,3.4-4.1,8.1-4.1,8.1
	c-4.4,1.5-5.4,4.5-5.4,4.5l-1.5,0c0,0,0,0.2-0.5,0.8c-2.4,2.8-9.5,3.2-8.9-0.1c0.6-3.3,5.7-3.4,5.7-3.4l1.4-2.9
	c-1.3,0.4-2.2-0.3-2.6-0.8c-1.1-1.2,1.8-4.2,3.5-4.6c1.6-0.3,0.2,0.5-0.2,1.9c-0.8,2.9,3.9,3.1,5.8,1.1c3-3.1-0.7-4.9-1.2-5.1
	c-5.3-1.9-13,1.7-13.6,4.5c-0.5,2.9,0.9,3.9,0.9,3.9s-2,0.7-3.5,2c-3.2,2.8-2.1,4.6-4.1,4.9c-2,0.3-0.6-2.1-0.6-2.1l8.5-19.2
	l-5.6-0.1l-3.9,8.3c-4.1-5.6-13.8,0.4-16.4,6.5c-1.6,3.9-1.3,6.3-0.3,7.6h0c1.3,1.9,3.7,2,3.7,2s2.5,0.2,5.2-1.3
	c0.5-0.3,0.8-0.5,1.1-0.7h0c1-0.6,0.9-0.6,1.2,0c0.1,0.1,0.1,0.3,0.3,0.5c1.6,2.5,6.6,1.4,8.1-0.1c0.2-0.2,0.3-0.3,0.4-0.4h0
	c0.2-0.2,0.4-0.1,0.6,0h0c0.5,0.4,1,1.7,4.1,2.3c3.3,0.6,7.7-1,9.7-2.3h0c0.4-0.2,0.7-0.5,0.9-0.7c1.2-1.2,1.4-1.4,1.6-0.7
	c0.1,0.5,0.3,0.9,0.6,1.4v0c1.1,1.7,3.7,2.7,8.6,2c2.2-0.3,3.9-1.1,5-2h0c2.2-1.6,2.9-3.6,2.9-3.6l-2.1-0.2c-1.2,3.2-9.6,4.5-8.9,1
	c0.7-3.5,5.6-3.4,5.6-3.4l1.4-3c-1.2,0-1.6,0-2.4-0.7c-1.3-1.1,1.2-4,3.4-4.8c1.9-0.6-1.8,2.2,0.1,3.7c2.9,2.4,5.1-0.5,6.4-1.7
	c1.3-1.2,2.6,0.3,2.6,0.3l-5.4,12.3l-4.8,11.1l5.6,0c0,0,4.3-9.1,4.7-10.1c0.2-0.5,0.3-0.8,0.5-1v0c0.2-0.2,0.3-0.2,0.5,0h0
	c0.4,0.4,0.9,1.4,2,1.8c2.7,0.9,5.7-0.2,8-1.8v0c1.3-0.9,2.4-1.9,3.1-2.7c1.9-2.3,2-1.9,2-0.9c-0.1,1.5,0.4,2.7,1.2,3.6
	c1.5,1.7,4.1,2.4,6.4,2c1.9-0.4,3.6-1,5.2-2v0c3.6-2.2,6.3-5.5,7.1-8.8C120.6,19.9,117.9,17.2,114.7,16.9 M34.6,30.2
	c-5.4,5.2-6.1-0.3-4.7-3.6c2.9-6.8,6.8-6.7,6.8-6.7s0.2,0,0.5,0.2C39.2,21.1,38.2,26.7,34.6,30.2 M91.5,30.2
	c-5.4,5.2-6.1-0.3-4.7-3.6c2.9-6.8,6.8-6.7,6.8-6.7s0.2,0,0.5,0.2C96.1,21.1,95.1,26.7,91.5,30.2 M116,26.1c-3.3,7.2-10.1,7.9-10,3
	c0.2-5,5.2-8.2,5.2-8.2s0.5-0.3,0.9-0.5C117.5,18.5,117.2,23.5,116,26.1"/>
</svg>
