<?xml version="1.0" encoding="utf-8"?>
<!-- Generator: Adobe Illustrator 26.3.1, SVG Export Plug-In . SVG Version: 6.00 Build 0)  -->
<svg version="1.1" id="Layer_1" xmlns="http://www.w3.org/2000/svg" xmlns:xlink="http://www.w3.org/1999/xlink" x="0px" y="0px"
	 viewBox="0 0 49.8 100" style="enable-background:new 0 0 49.8 100;" xml:space="preserve">
<style type="text/css">
	.st0{fill:#FFFFFF;}
</style>
<path class="st0" d="M14.4,100c0-0.3,0.1-0.6,0.1-0.9c0-14.3,0-28.6,0-42.9c0-0.3,0-0.6,0-1c-4.8,0-9.6,0-14.4,0c0-6,0-11.8,0-17.8
	c4.8,0,9.5,0,14.4,0c0-0.5,0-0.8,0-1.2c0-5.2-0.1-10.4,0.2-15.6c0.3-6.2,2.4-11.7,7.3-15.8C25.7,1.5,30.3,0,35.2,0
	c4.7,0,9.3,0.3,14,0.6c0.2,0,0.4,0.1,0.6,0.1c0,5.3,0,10.5,0,15.8c-0.4,0-0.8,0-1.1,0c-3.4,0.1-6.8,0-10.2,0.2
	c-3.7,0.3-5.8,2.2-6,5.9c-0.3,4.9-0.1,9.8-0.1,14.8c5.3,0,10.6,0,16,0c-0.7,6-1.5,11.8-2.2,17.8c-4.6,0-9.2,0-13.8,0
	c0,0.4-0.1,0.7-0.1,1c0,14.3,0,28.6,0,42.9c0,0.3,0.1,0.6,0.1,0.9C26.3,100,20.4,100,14.4,100z"/>
</svg>
