<?xml version="1.0" encoding="utf-8"?>
<!-- Generator: Adobe Illustrator 26.3.1, SVG Export Plug-In . SVG Version: 6.00 Build 0)  -->
<svg version="1.1" id="Layer_1" xmlns="http://www.w3.org/2000/svg" xmlns:xlink="http://www.w3.org/1999/xlink" x="0px" y="0px"
	 viewBox="0 0 100 100" style="enable-background:new 0 0 100 100;" xml:space="preserve">
<style type="text/css">
	.st0{fill:#222222;}
</style>
<g>
	<g>
		<path class="st0" d="M50,100C22.4,100,0,77.6,0,50C0,22.4,22.4,0,50,0s50,22.4,50,50C100,77.6,77.6,100,50,100z M50,3.6
			C24.4,3.6,3.6,24.4,3.6,50S24.4,96.4,50,96.4c25.6,0,46.4-20.8,46.4-46.4S75.6,3.6,50,3.6z"/>
	</g>
	<path class="st0" d="M64.7,42.6V21.4H40.8v1.2h-9.5v-1.2H20.8l0,33.8l1.1,0v11.4h-1.1v11.9h10.5v-1.2h9.5v1.2h14.7L59,75l-0.8-0.8
		l6.7-6.8l0.8,0.8L68,66v11.4h11.2V42.6H64.7z M75.6,73.8h-3.9V57.2l-8.5,8.5l0.8,0.8l-6.7,6.8l-0.8-0.8L54,74.9h-2.8v-9.7h-3.6v9.7
		h-6.7V76h-9.5v-1.1h-6.9v-8.3h-1.1V55.3l1.1,0l0-10.1h6.9h9.5h6.9v8.9h3.6V37.8h-3.6v3.8h-6.9h-9.5h-6.9l0-16.5h6.9V24h9.5v1.1h6.7
		V29h3.6v-3.9H61v21.2h14.5V73.8z"/>
</g>
</svg>
