<?xml version="1.0" encoding="utf-8"?>
<!-- Generator: Adobe Illustrator 26.3.1, SVG Export Plug-In . SVG Version: 6.00 Build 0)  -->
<svg version="1.1" id="Layer_1" xmlns="http://www.w3.org/2000/svg" xmlns:xlink="http://www.w3.org/1999/xlink" x="0px" y="0px"
	 viewBox="0 0 100 100" style="enable-background:new 0 0 100 100;" xml:space="preserve">
<style type="text/css">
	.st0{fill:#FFFFFF;}
</style>
<g>
	<path class="st0" d="M-0.2,77.5c0.6-1.9,1.5-3.3,3.4-4.1c0.2-0.1,0.4-0.6,0.5-0.9c1.1-8.1,7.1-14.1,15.1-15.1c1.3-0.2,2.7,0,4.1,0
		c-0.5-6.7-0.9-13.2-1.4-19.8c-1.5,0-3,0-4.6,0c1.1-3.3,2.1-6.6,3.1-9.8c1.1,0,2.2,0,3.3,0c0.6-1.9,1.3-3.8,1.9-5.8
		c0.2-0.7,0.5-0.9,1.3-0.9c4.5,0,8.9,0,13.4,0c0.4,0,0.7,0,1.1,0c0-5.8,0-11.6,0-17.4c1.8-0.4,3.5-0.8,5.2-1.3
		c3.2-0.8,6.5-1.6,9.7-2.4c2.7-0.6,5,0.6,5.7,3.1c0.7,2.6-0.8,4.9-3.5,5.6c-2.7,0.7-5.4,1.3-8.1,1.9c0,3.4,0,6.8,0,10.3
		c0.3,0,0.7,0,1,0c4.5,0,9,0,13.5,0c0.8,0,1.1,0.3,1.3,0.9c0.6,1.9,1.2,3.8,1.8,5.7c1.1,0,2.2,0,3.4,0c1,3.3,2,6.4,3.1,9.8
		c-16.6,0-33,0-49.6,0c0.5,6.6,0.9,13.1,1.4,19.7c0.4,0,0.7,0,1.1,0c2.9,0,5.7,0,8.6,0.1c7.9,0.3,15.1,6.9,16,14.7
		c0.1,0.7,0.3,1.2,1,1.6c3,1.5,3.8,5.4,1.7,8.1c-0.1,0.2-0.3,0.4-0.2,0.5c0.4,1.2,1.1,2.4,1.3,3.7c0.3,2.2-1,4.3-3,5.2
		c-0.5,0.2-0.8,0.5-0.9,1.1c-1,4.3-4.3,7.2-8.7,7.6c-0.2,0-0.4,0.1-0.6,0.2c-9.7,0-19.3,0-29,0c-0.6-0.1-1.3-0.2-1.9-0.3
		c-4-1-6.5-3.5-7.5-7.5c-0.1-0.3-0.2-0.7-0.4-0.8c-1.9-0.7-2.9-2.2-3.5-4c0-0.7,0-1.3,0-2c0.5-1,1-2.1,1.4-3c-0.5-1-1-2-1.4-3.1
		C-0.2,78.7-0.2,78.1-0.2,77.5z M48.7,73c0-0.4,0-0.7-0.1-1c-1-6.3-6.8-11.5-13.1-11.7c-5.1-0.1-10.2-0.1-15.3,0
		c-6,0.1-11.3,4.3-13,10.1C6.9,71.2,6.8,72,6.6,73C20.7,73,34.7,73,48.7,73z M27.7,80.8c7.2,0,14.4,0,21.6,0c0.4,0,0.7,0,1.1,0
		c1-0.1,1.9-1,2.1-1.9c0.2-0.9-0.2-2-1-2.4c-0.6-0.3-1.3-0.5-2-0.5c-14.5,0-29.1,0-43.6,0c-0.3,0-0.6,0-0.9,0
		c-1,0.1-1.7,0.7-2.1,1.7c-0.3,0.9-0.1,1.7,0.5,2.4c0.6,0.7,1.4,0.8,2.3,0.8C13,80.8,20.4,80.8,27.7,80.8z M34.2,94.1
		c-1.9-1.3-3.7-2.6-5.5-3.9c-0.6-0.4-1-0.4-1.5,0c-1.8,1.4-3.7,2.6-5.6,3.9c-0.9-0.6-1.8-1.2-2.6-1.9c-0.6-0.5-1.3-0.7-2.1-0.7
		c-3,0-6,0-9,0c-0.3,0-0.7,0-1.1,0c0,0.2,0,0.3,0,0.4c0.7,2.9,3.4,4.9,6.8,4.9c9.4,0,18.8,0,28.2,0c2,0,3.8-0.7,5.2-2.1
		c0.8-0.9,1.4-1.9,1.6-3.2c-2.3,0-4.4,0.1-6.6,0c-2.9-0.2-5.4,0.3-7.5,2.3C34.4,94,34.3,94,34.2,94.1z M70.1,34.6
		c-0.3-1-0.7-1.9-0.9-2.9c-0.2-0.8-0.6-1-1.4-1c-14.8,0-29.6,0-44.5,0c-0.2,0-0.5,0-0.7,0c-0.2,0-0.5,0.2-0.5,0.3
		c-0.4,1.2-0.7,2.3-1.1,3.6C37.4,34.6,53.7,34.6,70.1,34.6z M26.6,27.8c12.7,0,25.3,0,38,0c-0.3-0.9-0.6-1.8-0.8-2.7
		c-0.2-0.8-0.5-1.1-1.4-1c-11.2,0-22.4,0-33.6,0c-0.2,0-0.5,0-0.7,0c-0.2,0-0.4,0.2-0.4,0.3C27.3,25.5,27,26.6,26.6,27.8z M47,8.5
		c0.4-0.1,0.7-0.2,1-0.2c3.1-0.7,6.2-1.4,9.3-2.2c1.2-0.3,1.7-1,1.5-2c-0.2-0.9-1-1.3-2.3-1C52.7,4,48.8,5,44.9,5.9
		C44.3,6,44.1,6.3,44.1,7c0,4.4,0,8.8,0,13.2c0,0.3,0,0.6,0,0.9c1.1,0,2,0,2.9,0C47,16.9,47,12.7,47,8.5z M24.9,83.8
		c0.1,0.2,0.2,0.3,0.2,0.3c2.9,2,5.7,4.1,8.6,6.1c0.2,0.2,0.8,0.1,1.1-0.1c2.7-1.9,5.4-3.8,8.2-5.7c0.2-0.1,0.3-0.3,0.6-0.5
		C37.2,83.8,31.1,83.8,24.9,83.8z M25.3,87.9c-1.5-1.1-2.9-2-4.3-3c-1-0.8-2.1-1.1-3.4-1.1c-1.8,0.1-3.5,0-5.4,0
		c0.1,0.2,0.1,0.3,0.2,0.3c2.9,2.1,5.8,4.1,8.7,6.1c0.2,0.1,0.6,0.1,0.8,0C23.1,89.5,24.1,88.7,25.3,87.9z M13.5,88.7
		c-0.1-0.2-0.1-0.2-0.1-0.3c-1.9-1.4-3.9-2.8-5.8-4.1c-1-0.7-2.7-0.7-3.7,0c-0.9,0.6-1.3,1.6-1,2.5c0.3,1,1.2,1.9,2.2,1.9
		C7.9,88.7,10.6,88.7,13.5,88.7z M42.1,88.6c0.3,0.1,0.5,0.1,0.6,0.1c2.5,0,5,0,7.4,0c1.1,0,2-0.7,2.4-1.7c0.3-1,0-1.8-0.7-2.5
		c-0.7-0.7-2.3-1-3-0.6C46.6,85.4,44.4,87,42.1,88.6z"/>
	<path class="st0" d="M61,100c-0.3-2.2-0.5-4.3-0.8-6.5c-0.8-6.9-1.5-13.9-2.3-20.8c-0.5-5-1.1-9.9-1.6-14.9c0-0.2,0-0.3,0-0.6
		c1.2,0,2.2,0,3.4,0c0-5.6,0-11.1,0-16.7c3,0,5.9,0,8.9,0c0,1.4,0,2.8,0,4.2c1,0,1.8,0,2.9,0c0-1.4,0-2.8,0-4.2c3,0,5.9,0,8.8,0
		c0,1.4,0,2.8,0,4.2c3,0,5.9,0,8.9,0c0-2.1,0-4.2,0-6.3c3,0,5.8,0,8.8,0c0,6.2,0,12.4,0,18.7c0.8,0.1,1.5,0.1,2.2,0.1
		c0,0.3,0,0.5,0,0.8c-0.1,0.3-0.2,0.7-0.2,1c-0.4,3.2-0.7,6.5-1.1,9.7c-0.8,6.9-1.5,13.8-2.3,20.8c-0.4,3.5-0.8,6.9-1.2,10.4
		C84,100,72.5,100,61,100z M63.5,96.9c9.9,0,19.6,0,29.4,0c1.3-12.2,2.7-24.4,4-36.6c-1,0-1.9,0-2.7,0c-0.7-0.1-1,0.2-1.3,0.9
		c-1.2,3.4-2.4,6.7-3.6,10c-0.2,0.6-0.5,0.9-1.2,0.9c-6.6,0-13.3,0-19.9,0c-0.7,0-1-0.3-1.2-0.9c-1.2-3.4-2.4-6.7-3.6-10.1
		c-0.1-0.3-0.4-0.7-0.6-0.7c-1.1-0.1-2.1,0-3.3,0C60.9,72.5,62.2,84.7,63.5,96.9z M77.3,69.1c0-8.5,0-17,0-25.5c-1,0-1.9,0-2.8,0
		c0,8.5,0,17,0,25.5C75.5,69.1,76.4,69.1,77.3,69.1z M83.2,69c0-7.1,0-14.1,0-21.1c-1,0-1.9,0-2.8,0c0,7.1,0,14.1,0,21.1
		C81.4,69,82.2,69,83.2,69z M71.4,69c0-7.1,0-14.1,0-21.1c-1,0-1.8,0-2.8,0c0,0.4,0,0.8,0,1.1c0,5.4,0,10.8,0,16.1
		c0,1.3,0.4,2.6,0.6,3.9C70.1,69,70.7,69,71.4,69z M86.3,69c0.1,0.1,0.2,0.1,0.3,0.2c0.2-0.2,0.5-0.5,0.6-0.7c0.5-1.3,1-2.7,1.4-4
		c0.3-1,0.5-2.1,0.6-3.2c0.1-4.1,0-8.1,0-12.2c0-0.3,0-0.7,0-1.1c-1,0-2,0-2.9,0C86.3,55,86.3,62,86.3,69z M92.2,41.4
		c0,5.3,0,10.5,0,15.8c1,0,1.9,0,2.8,0c0-5.3,0-10.5,0-15.8C94,41.4,93.1,41.4,92.2,41.4z M65.6,57.9c0-4.8,0-9.6,0-14.4
		c-1,0-1.9,0-2.8,0c0,4.6,0,9.1,0,13.6C63.7,57.6,64.9,56.7,65.6,57.9z"/>
	<path class="st0" d="M29.3,43.4c0-0.9,0-1.8,0-2.8c5.1,0,10.2,0,15.4,0c0,0.9,0,1.8,0,2.8C39.6,43.4,34.5,43.4,29.3,43.4z"/>
	<path class="st0" d="M47.9,43.5c0-1,0-1.9,0-2.9c0.6,0,1.2,0,1.9,0c0.6,0,1.2,0,1.9,0c0,1,0,1.9,0,2.9
		C50.4,43.5,49.2,43.5,47.9,43.5z"/>
	<path class="st0" d="M17.3,66.2c0-0.9,0-1.8,0-2.8c1,0,1.9,0,2.9,0c0,0.9,0,1.8,0,2.8C19.2,66.2,18.3,66.2,17.3,66.2z"/>
	<path class="st0" d="M35.2,63.4c1,0,1.8,0,2.8,0c0,0.9,0,1.9,0,2.9c-0.9,0-1.8,0-2.8,0C35.2,65.4,35.2,64.4,35.2,63.4z"/>
	<path class="st0" d="M26.1,65.2c0,1,0,1.8,0,2.8c-1,0-1.9,0-2.9,0c0-0.9,0-1.8,0-2.8C24.2,65.2,25.1,65.2,26.1,65.2z"/>
	<path class="st0" d="M29.2,68c0-1,0-1.9,0-2.8c1,0,1.9,0,2.9,0c0,0.9,0,1.8,0,2.8C31.2,68,30.2,68,29.2,68z"/>
	<path class="st0" d="M64.1,75c9.4,0,18.7,0,28.2,0c-0.7,6.3-1.4,12.6-2.1,19c-0.4,0-0.7,0-1,0c-7.3,0-14.6,0-21.9,0
		c-0.9,0-1.1-0.3-1.2-1.1c-0.6-5.7-1.2-11.4-1.8-17.1C64.2,75.6,64.2,75.4,64.1,75z M87.6,91c0.5-4.4,1-8.7,1.4-13.1
		c-7.2,0-14.4,0-21.6,0c0.5,4.4,0.9,8.7,1.4,13.1C75.1,91,81.3,91,87.6,91z"/>
	<path class="st0" d="M73.8,85.9c-0.9,0-1.8,0-2.8,0c0-0.9,0-1.8,0-2.8c0.9,0,1.8,0,2.8,0C73.8,84,73.8,84.9,73.8,85.9z"/>
	<path class="st0" d="M76.9,83c1,0,1.9,0,2.8,0c0,0.9,0,1.9,0,2.8c-0.9,0-1.9,0-2.8,0C76.9,85,76.9,84.1,76.9,83z"/>
	<path class="st0" d="M82.8,83c0.9,0,1.7,0,2.6,0c0,0.9,0,1.9,0,2.8c-0.8,0-1.7,0-2.6,0C82.8,84.9,82.8,84,82.8,83z"/>
</g>
</svg>
