<?xml version="1.0" encoding="utf-8"?>
<!-- Generator: Adobe Illustrator 26.3.1, SVG Export Plug-In . SVG Version: 6.00 Build 0)  -->
<svg version="1.1" id="Layer_1" xmlns="http://www.w3.org/2000/svg" xmlns:xlink="http://www.w3.org/1999/xlink" x="0px" y="0px"
	 viewBox="0 0 100.2 100" style="enable-background:new 0 0 100.2 100;" xml:space="preserve">
<style type="text/css">
	.st0{fill:#FFFFFF;}
</style>
<g>
	<path class="st0" d="M100.2,47c0,2,0,3.9,0,5.9c-0.1,0.3-0.1,0.7-0.2,1c-0.2,1.8-0.4,3.6-0.7,5.4c-1.9,10-6.4,18.6-13.6,25.8
		c-7.5,7.5-16.5,12.3-27,14.1c-1.9,0.3-3.8,0.5-5.7,0.8c-2,0-3.9,0-5.9,0c-1.3-0.2-2.6-0.3-4-0.5c-9.9-1.4-18.6-5.3-26.1-11.9
		c-8.8-7.8-14.3-17.4-16.3-29c-0.3-1.9-0.5-3.8-0.8-5.7c0-2,0-3.9,0-5.9c0.2-1.3,0.3-2.6,0.5-3.8c1.4-9.8,5.2-18.6,11.8-26
		C24.2,3.9,39.2-1.7,56.9,0.4c10,1.2,18.7,5.3,26.3,12c8.8,7.8,14.2,17.4,16.3,28.9C99.8,43.2,100,45.1,100.2,47z M94,50
		c0-24.1-19.5-43.7-43.8-43.9C26,6,6.3,25.7,6.2,49.9c0,24.1,19.5,43.7,43.8,43.9C74.2,93.9,94,74.2,94,50z"/>
	<path class="st0" d="M37.4,69.4c0-13,0-25.8,0-38.8C48.7,37,59.8,43.5,71.1,50C59.8,56.5,48.7,62.9,37.4,69.4z"/>
</g>
</svg>
