<?xml version="1.0" encoding="utf-8"?>
<!-- Generator: Adobe Illustrator 26.3.1, SVG Export Plug-In . SVG Version: 6.00 Build 0)  -->
<svg version="1.1" id="Layer_1" xmlns="http://www.w3.org/2000/svg" xmlns:xlink="http://www.w3.org/1999/xlink" x="0px" y="0px"
	 viewBox="0 0 100 99.7" style="enable-background:new 0 0 100 99.7;" xml:space="preserve">
<style type="text/css">
	.st0{fill:#FFFFFF;}
</style>
<g>
	<path class="st0" d="M59.4,99.7c-6.2,0-12.5,0-18.8,0c-0.5,0-1-0.1-1.5-0.1c-4.8-0.3-9.7-0.1-14.4-0.9c-11.2-1.8-18.9-8.1-22.5-19
		c-1.5-4.5-1.9-9.2-2-13.9c0-1.6-0.1-3.2-0.2-4.9c0-7.4,0-14.8,0-22.2c0.1-1.5,0.1-3,0.2-4.6c0.3-3.4,0.4-6.9,1-10.3
		C4,8.5,15.9,1.1,27.9,0.6C37,0.2,46,0,55.1,0c6.7,0,13.5,0,20.2,1C86.8,2.7,94.6,9.4,98,20.7c1.3,4.3,1.7,8.8,1.8,13.3
		c0,1.7,0.1,3.4,0.2,5.1c0,7.1,0,14.3,0,21.4c0,0.5-0.1,1-0.1,1.5c-0.1,4.9-0.2,9.8-1.2,14.6C95.9,89.3,86.4,97.8,73.6,99
		c-4.3,0.4-8.6,0.4-12.9,0.6C60.2,99.6,59.8,99.7,59.4,99.7z M50.8,92.1c7-0.3,14.9-0.3,22.7-1.1c8-0.8,13.7-5.2,16.6-12.9
		c1.4-3.7,1.8-7.6,1.9-11.5c0.1-9.7,0.2-19.5,0.1-29.2c0-3.9-0.3-7.9-0.9-11.8C89.6,15.6,81.9,8.8,71.8,8.3C64.9,8,58,7.7,51.1,7.8
		c-8.2,0-16.4,0.1-24.6,0.8c-8.1,0.7-13.8,5.2-16.7,12.9C8.5,25.3,8.1,29.3,8,33.2C8,44.1,8,55,8,65.9c0,2.7,0.3,5.5,0.8,8.2
		c1.7,10,9.2,16.7,19.3,17.2C35.4,91.7,42.7,91.9,50.8,92.1z"/>
	<path class="st0" d="M49.8,74.2c-13.4,0-24.4-10.9-24.4-24.4c0-13.4,11-24.4,24.4-24.4c13.5,0,24.4,10.9,24.4,24.4
		C74.2,63.3,63.3,74.2,49.8,74.2z M49.8,33.3c-9.1,0-16.6,7.5-16.6,16.6c0,9.1,7.5,16.6,16.6,16.6c9.2,0,16.6-7.5,16.6-16.6
		C66.4,40.7,58.9,33.3,49.8,33.3z"/>
	<path class="st0" d="M82.8,23.5c0,3.2-2.6,5.9-5.9,5.9c-3.2,0-5.8-2.6-5.8-5.8c0-3.2,2.6-5.9,5.9-5.9
		C80.2,17.7,82.8,20.3,82.8,23.5z"/>
</g>
</svg>
