<?xml version="1.0" encoding="utf-8"?>
<!-- Generator: Adobe Illustrator 26.3.1, SVG Export Plug-In . SVG Version: 6.00 Build 0)  -->
<svg version="1.1" id="Layer_1" xmlns="http://www.w3.org/2000/svg" xmlns:xlink="http://www.w3.org/1999/xlink" x="0px" y="0px"
	 viewBox="0 0 100 100" style="enable-background:new 0 0 100 100;" xml:space="preserve">
<path d="M23.8,0c1.4,0.3,2.9,0.5,4.3,1c8.3,3,13.3,8.9,14.6,17.7c0.7,5-0.4,9.7-3,14.1c-5,8.1-9.9,16.3-14.9,24.4
	c-0.1,0.2-0.2,0.3-0.2,0.3c0.8,1.1,1.5,2.1,2.3,3c0.2,0.2,0.6,0.3,0.9,0.3c4.7,0,9.4,0,14.2,0c5.2,0,9.6,3.8,10,8.8
	c0.4,5.3-3.1,9.8-8.4,10.7c-0.5,0.1-1,0.1-1.6,0.1c-7.6,0-15.2,0-22.8,0c-3,0-5.4,1.8-6,4.5c-0.9,3.8,1.9,7.2,5.9,7.2
	c6.3,0,12.7,0,19,0c1.1,0,1.9,0.5,2.1,1.5c0.3,1.3-0.6,2.4-1.9,2.4c-2.2,0-4.4,0-6.5,0c-4.3,0-8.7,0-13,0c-5,0-9.4-4-9.7-8.9
	c-0.4-5.4,3.3-10,8.6-10.6c0.5-0.1,1,0,1.5,0c7.6,0,15.2,0,22.8,0c3,0,5.4-1.9,6-4.5c0.8-3.7-1.8-7.1-5.6-7.2c-4.9-0.1-9.8,0-14.6,0
	c-0.3,0-0.7,0.2-0.8,0.5c-1.4,2.5-3.6,3.7-6.2,3.4c-2.2-0.3-4.2-2-4.9-4.3C15.1,62,16,59.8,18.2,58c0.1-0.1,0.1-0.1,0.2-0.3
	c-0.7-1.2-1.5-2.5-2.3-3.7c-4.4-7.1-8.7-14.3-13.1-21.4c-1.6-2.6-2.6-5.3-2.9-8.3c0-0.2-0.1-0.4-0.2-0.5c0-1.6,0-3.1,0-4.7
	c0.1-0.1,0.2-0.3,0.2-0.4C1.6,9.9,6.6,4,14.9,1c1.4-0.5,2.8-0.7,4.2-1C20.7,0,22.3,0,23.8,0z M21.5,55.1c0.2-0.3,0.3-0.5,0.4-0.7
	c4.9-8,9.8-16.1,14.7-24.1c2.1-3.5,2.8-7.4,2.2-11.5c-1.4-9.5-10.5-16.2-20-14.7C7.5,5.8,0.7,18,5.4,28.4c1.3,2.9,3.1,5.5,4.7,8.2
	C13.9,42.7,17.6,48.9,21.5,55.1z M23.4,62.9c0-1-1-1.9-2-1.9c-1,0-1.9,1-1.9,2c0,1,1,1.9,2,1.9C22.5,64.8,23.4,63.9,23.4,62.9z"/>
<path d="M77.3,100c-1.9-0.6-3.4-1.7-4.3-3.6c-0.1-0.2-0.6-0.3-1-0.3c-5.3,0-10.7,0-16,0c-1.1,0-1.9-0.5-2.1-1.5
	c-0.3-1.3,0.6-2.4,2-2.4c5.3,0,10.7,0,16,0c0.6,0,1-0.1,1.3-0.8c0.5-0.9,1.3-1.6,2-2.5c-0.4-0.6-0.9-1.4-1.4-2.2
	c-4.6-7.2-9.3-14.4-13.8-21.6c-8-12.9,0-30.1,15-32.4c12-1.9,23,6.4,24.7,18.5c0,0.2,0.1,0.3,0.2,0.4c0,1.6,0,3.1,0,4.7
	c-0.1,0.1-0.1,0.2-0.2,0.3c-0.4,3.6-1.8,6.7-3.7,9.7c-4.4,6.8-8.7,13.6-13,20.4c-0.5,0.8-1,1.6-1.5,2.4c0.2,0.2,0.4,0.3,0.5,0.4
	c1.8,1.5,2.6,3.4,2.2,5.6c-0.4,2.3-1.8,3.8-4,4.6c-0.2,0.1-0.4,0.2-0.6,0.2C78.9,100,78.1,100,77.3,100z M78.5,86.5
	c0.2-0.2,0.3-0.3,0.3-0.4c4.9-7.7,9.9-15.4,14.7-23.2c2.3-3.7,3.1-7.9,2.1-12.2c-1.6-7.4-6.1-12.1-13.3-13.8
	c-7.1-1.6-13.2,0.7-17.8,6.4c-4.7,5.9-4.9,13.7-0.8,20.3C68.5,71,73.3,78.3,78,85.7C78.1,85.9,78.3,86.2,78.5,86.5z M78.6,92.2
	c-1-0.1-2,0.8-2,1.9c0,1,0.8,2,1.9,2c1,0.1,2-0.8,2-1.9C80.5,93.2,79.6,92.3,78.6,92.2z"/>
<path d="M49,94.1c0,1.1-0.8,2-1.9,2c-1.1,0-2-0.8-2-2c0-1.1,0.8-1.9,1.9-1.9C48.1,92.2,49,93,49,94.1z"/>
<path d="M21.5,31.2c-5.4,0-9.8-4.3-9.8-9.8c0-5.4,4.4-9.8,9.8-9.7c5.4,0,9.7,4.4,9.7,9.7C31.3,26.9,26.9,31.2,21.5,31.2z M27.3,21.5
	c0-3.2-2.7-5.9-5.8-5.9c-3.2,0-5.9,2.7-5.9,5.8c0,3.2,2.7,5.9,5.8,5.9C24.6,27.3,27.3,24.7,27.3,21.5z"/>
<path d="M78.5,63.7c-5.4,0-9.8-4.3-9.8-9.8c0-5.4,4.4-9.8,9.8-9.8c5.4,0,9.7,4.3,9.7,9.7C88.3,59.3,84,63.7,78.5,63.7z M84.4,53.9
	c0-3.2-2.6-5.9-5.8-5.9c-3.2,0-5.9,2.6-5.9,5.8c0,3.2,2.6,5.9,5.8,5.9C81.6,59.8,84.3,57.1,84.4,53.9z"/>
</svg>
