<?xml version="1.0" encoding="utf-8"?>
<!-- Generator: Adobe Illustrator 26.3.1, SVG Export Plug-In . SVG Version: 6.00 Build 0)  -->
<svg version="1.1" id="Layer_1" xmlns="http://www.w3.org/2000/svg" xmlns:xlink="http://www.w3.org/1999/xlink" x="0px" y="0px"
	 viewBox="0 0 100 100" style="enable-background:new 0 0 100 100;" xml:space="preserve">
<g>
	<path d="M61.5,100c-1.6-0.4-3.3-0.5-4.8-1.1c-3.7-1.7-7.4-3.4-11-5.5C26.5,82,12.2,66,2.2,46c-1.1-2.2-1.8-4.5-2.1-7
		c0-0.2-0.1-0.4-0.2-0.5c0-1.6,0-3.1,0-4.7c0.3-1.2,0.5-2.4,0.8-3.6c1-3.9,2.9-7.3,5.7-10.2c1.4-1.4,2.8-2.8,4.2-4.2
		c2.4-2.4,5.8-2.4,8.2,0C24,20.9,29.1,26,34.2,31.2c2.4,2.4,2.4,5.7,0.1,8.2c-2,2.1-4.1,4.1-6.1,6.2c-1.9,1.9-2.1,3.5-0.6,5.8
		c0.9,1.4,1.9,2.7,2.8,4c0.8,1.1,0.7,2.3-0.3,3c-1,0.7-2.1,0.4-2.9-0.7c-1.1-1.6-2.2-3.1-3.3-4.7c-2-3.1-1.6-7,1-9.7
		c2.1-2.2,4.2-4.2,6.3-6.4c1.2-1.2,1.2-1.9,0-3.1c-4.9-5-9.9-9.9-14.8-14.8c-1.2-1.2-1.9-1.2-3.1,0c-1.2,1.2-2.5,2.4-3.7,3.7
		c-3.6,3.7-5.5,8.2-5.6,13.3c-0.1,3,0.6,5.9,2,8.7c8.7,17.4,21,31.8,37.3,42.6c4,2.6,8.2,5,12.4,7.1c6.9,3.5,15.6,2,21.2-3.3
		c1.5-1.4,3-2.9,4.4-4.4c0.9-0.9,0.9-1.8,0-2.6c-5.1-5.1-10.2-10.2-15.3-15.3c-0.9-0.9-1.8-0.8-2.7,0.1c-2.1,2-4.1,4.1-6.2,6.1
		c-3.1,3.1-6.9,3.5-10.5,1c-2.2-1.5-4.4-3.1-6.5-4.8c-0.9-0.7-1.1-1.6-0.6-2.5c0.4-0.8,1.3-1.3,2.1-1c0.5,0.1,0.9,0.5,1.3,0.8
		c2,1.4,3.9,2.9,5.9,4.3c1.9,1.3,3.8,1.2,5.4-0.5c2-2,4.1-4.1,6.1-6.1c2.7-2.7,5.9-2.7,8.6,0c5,5,10,10,15,15c2.7,2.7,2.7,6,0,8.6
		c-2.2,2.1-4.3,4.3-6.7,6.2c-3.1,2.5-6.8,3.8-10.8,4.2c-0.2,0-0.4,0.1-0.5,0.2C64.4,100,63,100,61.5,100z"/>
	<path d="M58.3,0c11.4,0.5,21.3,4.7,29.3,12.9c6.5,6.6,10.5,14.6,11.9,23.7c0.3,2.1,0.4,4.2,0.5,6.3c0.1,1.2-0.8,2.1-1.9,2.1
		c-1.1,0-2-0.9-2-2.1c-0.1-7-1.8-13.6-5.4-19.6C84.4,12.9,75.3,6.6,63.2,4.5c-2-0.3-4.1-0.4-6.1-0.6c-1.3-0.1-2.2-0.9-2.2-2
		C55,0.8,55.9,0,57.1,0C57.5,0,57.9,0,58.3,0z"/>
	<path d="M57.9,11.7c14.3,0.5,26.4,10.6,29.5,24.4c0.5,2.2,0.6,4.4,0.8,6.7c0.1,1.4-0.8,2.3-1.9,2.3c-1.1,0-1.9-0.9-2-2.2
		c-0.2-7.1-2.6-13.3-7.5-18.5c-5.2-5.5-11.6-8.3-19.1-8.6c-0.1,0-0.2,0-0.3,0c-1.7-0.1-2.6-0.8-2.5-2.1c0.1-1.2,1-1.9,2.7-1.9
		C57.7,11.7,57.8,11.7,57.9,11.7z"/>
	<path d="M57.3,23.5c9.9,0.2,18.1,7.9,19.1,17.5c0.1,0.5,0.1,1.1,0.1,1.7c0,1.4-0.8,2.4-2,2.4c-1.1,0-2-0.8-2-2.3
		c-0.1-2.1-0.4-4.1-1.3-6c-2.7-5.6-7.1-8.7-13.3-9.2c-0.4,0-0.7,0-1.1-0.1c-1.2-0.2-2-1-1.9-2.1c0.1-1.1,0.9-1.8,2.1-1.9
		C57.2,23.5,57.4,23.5,57.3,23.5z"/>
	<path d="M57.2,35.2c4.1,0.2,7.3,3.4,7.6,7.5c0.1,1.2-0.7,2.2-1.9,2.3c-1.1,0.1-2-0.7-2.1-2c-0.1-1.3-0.5-2.5-1.7-3.1
		c-0.7-0.4-1.6-0.6-2.4-0.7c-1.2-0.3-2-1.1-1.9-2.1C55.1,35.9,56,35.2,57.2,35.2z"/>
	<path d="M34.6,61.5c1.1,0,2,0.9,2,2c0,1.1-1,2-2,2c-1,0-1.9-0.9-2-1.9C32.6,62.4,33.6,61.5,34.6,61.5z"/>
</g>
</svg>
