<?xml version="1.0" encoding="utf-8"?>
<!-- Generator: Adobe Illustrator 26.3.1, SVG Export Plug-In . SVG Version: 6.00 Build 0)  -->
<svg version="1.1" id="Layer_1" xmlns="http://www.w3.org/2000/svg" xmlns:xlink="http://www.w3.org/1999/xlink" x="0px" y="0px"
	 viewBox="0 0 100 100" style="enable-background:new 0 0 100 100;" xml:space="preserve">
<style type="text/css">
	.st0{fill:#FFFFFF;}
</style>
<g>
	<path class="st0" d="M52.1,0c2.1,0.5,4.3,0.7,6.4,1.4C70.1,5.1,78,16.6,77.1,28.5c-0.3,3.7-1.6,7.2-3,10.7
		c-4.3,10.5-9.9,20.3-15.6,30c-0.7,1.3-1.5,2.5-2.3,3.8c-3,4.5-9.6,4.6-12.4,0c-6.7-10.8-13.1-21.8-17.9-33.6
		c-1.5-3.6-2.9-7.2-3.1-11.1C22.1,15.7,31.3,3.6,43.4,0.8c1.5-0.3,2.9-0.5,4.4-0.8C49.3,0,50.7,0,52.1,0z M50,14.4
		c-6,0-11,4.8-11,10.9c0,6.1,4.9,11,10.9,11c6,0,10.9-4.9,10.9-10.9C61,19.4,56.1,14.5,50,14.4z"/>
	<path class="st0" d="M0,79.9c1.1-4.8,4.5-7.5,8.5-9.7c1.5-0.8,3.2-0.3,4,1.1c0.8,1.4,0.4,3-1,3.9c-1.4,0.9-2.8,1.8-4,2.9
		c-2.2,2-2.1,3.9-0.1,6c2.4,2.5,5.5,3.8,8.7,5c6.3,2.4,12.9,3.6,19.6,4.3c7.2,0.8,14.3,1,21.5,0.6c9.6-0.6,19.1-1.8,28.1-5.5
		c2.2-0.9,4.4-2.1,6.3-3.6c3.4-2.5,3.3-4.9,0-7.6c-0.9-0.7-1.9-1.3-2.9-2c-1.6-1-2.1-2.6-1.2-4.1c0.8-1.4,2.6-1.9,4.2-1
		c0.3,0.1,0.5,0.3,0.8,0.4c3.6,2.2,6.6,4.9,7.6,9.2c0,0.8,0,1.6,0,2.3c-0.9,4.3-3.7,7.1-7.4,9.1c-2.7,1.5-5.5,2.8-8.3,3.8
		c-7.7,2.7-15.8,3.9-23.9,4.5c-1.7,0.1-3.4,0.3-5.1,0.4c-3.5,0-7,0-10.5,0c-0.3-0.1-0.6-0.1-0.9-0.2c-5.2-0.5-10.4-0.9-15.6-1.7
		c-6.4-0.9-12.6-2.6-18.4-5.5c-4.6-2.3-8.7-5-9.9-10.5C0,81.4,0,80.7,0,79.9z"/>
	<path class="st0" d="M36.3,71.9c-4.7,1-9.5,1.6-13.6,4.7c0.7,0.5,1.2,0.9,1.8,1.2c2.8,1.6,5.9,2.3,9.1,2.9
		c9.9,1.8,19.8,1.9,29.7,0.6c3.7-0.5,7.3-1.2,10.7-2.7c1.1-0.5,2.1-1.2,3.2-1.9c-3.9-3.2-8.7-3.8-13.4-4.8c1-1.7,1.9-3.3,2.9-4.9
		c0.1-0.2,0.6-0.3,0.8-0.3c3.9,0.7,7.7,1.7,11.1,3.7c1,0.6,1.9,1.3,2.7,2.1c2.4,2.5,2.4,5.9,0,8.4c-2,2-4.5,3.1-7.2,4
		c-5.2,1.7-10.6,2.5-16,2.9c-6.6,0.5-13.3,0.4-19.9-0.4c-5.4-0.7-10.8-1.5-15.7-4c-1.3-0.6-2.6-1.5-3.7-2.5c-2.6-2.5-2.6-6,0-8.6
		c1.9-1.9,4.3-3,6.7-3.8c2.2-0.7,4.5-1.2,6.7-1.8c0.6-0.2,1,0,1.3,0.6C34.4,68.8,35.3,70.3,36.3,71.9z"/>
</g>
</svg>
