<?xml version="1.0" encoding="utf-8"?>
<!-- Generator: Adobe Illustrator 26.3.1, SVG Export Plug-In . SVG Version: 6.00 Build 0)  -->
<svg version="1.1" id="Layer_1" xmlns="http://www.w3.org/2000/svg" xmlns:xlink="http://www.w3.org/1999/xlink" x="0px" y="0px"
	 viewBox="0 0 344.9 300" style="enable-background:new 0 0 344.9 300;" xml:space="preserve">
<style type="text/css">
	.st0{fill:#1D1D1B;}
	.st1{fill:#FF5100;}
</style>
<g>
	<polygon class="st0" points="0,124.7 10,124.7 26.3,150 42.6,124.7 52.7,124.7 52.7,178.3 43.2,178.3 43.2,139.9 26.3,165.1 
		26,165.1 9.3,140 9.3,178.3 0,178.3 	"/>
	<path class="st0" d="M84.6,124.3h8.7l23.6,54H107l-5.4-12.9H76.2l-5.5,12.9h-9.6L84.6,124.3z M98.1,157l-9.3-21.4L79.7,157H98.1z"
		/>
	<polygon class="st0" points="125.4,124.7 134.8,124.7 134.8,169.7 162.9,169.7 162.9,178.3 125.4,178.3 	"/>
	<polygon class="st0" points="172,124.7 181.4,124.7 181.4,169.7 209.5,169.7 209.5,178.3 172,178.3 	"/>
	<path class="st0" d="M238.4,151.6v-0.2c0-15.1,11.6-27.7,28.1-27.7c16.5,0,27.9,12.5,27.9,27.6v0.2c0,15.1-11.6,27.7-28.1,27.7
		C249.9,179.2,238.4,166.7,238.4,151.6 M284.5,151.6v-0.2c0-10.4-7.6-19.1-18.2-19.1s-18.1,8.5-18.1,18.9v0.2c0,10.4,7.6,19,18.2,19
		C277.1,170.5,284.5,162.1,284.5,151.6"/>
	<polygon class="st0" points="305,124.7 344.9,124.7 344.9,133.3 314.4,133.3 314.4,147.9 341.5,147.9 341.5,156.5 314.4,156.5 
		314.4,178.3 305,178.3 	"/>
</g>
<g>
	<path class="st0" d="M22.6,190.7H31l22.6,51.8h-9.6l-5.2-12.4H14.6l-5.3,12.4H0L22.6,190.7z M35.6,222.1l-8.9-20.6l-8.8,20.6H35.6z
		"/>
	<polygon class="st0" points="61.7,191.1 70.1,191.1 97.7,226.7 97.7,191.1 106.6,191.1 106.6,242.5 99,242.5 70.6,205.9 
		70.6,242.5 61.7,242.5 	"/>
	<polygon class="st0" points="131.7,199.5 115.4,199.5 115.4,191.1 157.1,191.1 157.1,199.5 140.8,199.5 140.8,242.5 131.7,242.5 	
		"/>
	<path class="st0" d="M177.6,190.7h8.4l22.6,51.8H199l-5.2-12.4h-24.3l-5.3,12.4h-9.3L177.6,190.7z M190.5,222.1l-8.9-20.6
		l-8.8,20.6H190.5z"/>
	<polygon class="st0" points="216.7,191.1 225.7,191.1 225.7,234.3 252.7,234.3 252.7,242.5 216.7,242.5 	"/>
	<polygon class="st0" points="267,222.2 246.6,191.1 257.3,191.1 271.6,213.8 286.2,191.1 296.5,191.1 276.1,222 276.1,242.5 
		267,242.5 	"/>
	<path class="st0" d="M313.9,190.7h8.4l22.6,51.8h-9.6l-5.2-12.4h-24.3l-5.3,12.4h-9.3L313.9,190.7z M326.8,222.1l-8.9-20.6
		l-8.8,20.6H326.8z"/>
</g>
<g>
	<path class="st1" d="M182.8,109.7c-28.8,0-52.2-23.4-52.2-52.3c0-28.8,23.4-52.2,52.2-52.2c28.8,0,52.2,23.4,52.2,52.2
		C235.1,86.2,211.7,109.7,182.8,109.7"/>
	<polygon class="st1" points="88.7,0 60.7,93.5 32.7,0 0,109.2 56,109.2 65.4,109.2 121.4,109.2 	"/>
	<polygon class="st1" points="344.9,109.2 327,109.2 292.2,37.1 257.4,109.2 239.5,109.2 292.2,0 	"/>
	<polygon class="st1" points="309.1,109.2 275.3,109.2 292.2,74.1 	"/>
</g>
<g>
	<path class="st1" d="M11.1,300c-3.9,0-6.4-1.3-8.1-3.2C0.3,294,0,289.9,0,281.2c0-8.7,0.3-12.8,3.1-15.7c1.7-1.8,4.2-3.2,8.1-3.2
		c3.2,0,5.7,0.9,7.5,2.5c2.1,1.9,3.1,4.5,3.2,7.7h-6.6c-0.1-2-0.5-5-4.1-5c-1.6,0-2.5,0.6-3.1,1.4c-1.3,1.8-1.5,5.5-1.5,12.2
		c0,6.7,0.2,10.4,1.5,12.2c0.6,0.8,1.5,1.4,3.1,1.4c2.9,0,4.1-2.2,4.1-4.7v-5.7h-4.1v-4.8h10.7v10.2C21.8,296.5,17.4,300,11.1,300z"
		/>
	<path class="st1" d="M46.2,296.8c-1.7,1.8-4.2,3.2-8.1,3.2c-3.9,0-6.4-1.3-8.1-3.2c-2.8-2.9-3.1-6.9-3.1-15.7
		c0-8.7,0.3-12.7,3.1-15.7c1.7-1.8,4.2-3.2,8.1-3.2c3.9,0,6.4,1.3,8.1,3.2c2.8,2.9,3.1,6.9,3.1,15.7C49.3,289.9,49.1,294,46.2,296.8
		z M30.1,259.8v-5.2H36v5.2H30.1z M41.3,269c-0.6-0.8-1.6-1.4-3.2-1.4c-1.6,0-2.5,0.6-3.1,1.4c-1.2,1.8-1.5,5.5-1.5,12.2
		c0,6.7,0.2,10.4,1.5,12.2c0.6,0.8,1.5,1.4,3.1,1.4c1.6,0,2.6-0.6,3.2-1.4c1.2-1.8,1.4-5.5,1.4-12.2C42.7,274.5,42.5,270.7,41.3,269
		z M40.4,259.8v-5.2h5.9v5.2H40.4z"/>
	<path class="st1" d="M72.7,297.5c-1.7,1.4-4.5,2.4-8.2,2.4c-3.6,0-6.3-0.9-8.1-2.4c-2-1.8-2.7-4-2.7-7.9h6.6c0,2,0.2,3.2,1.2,4.1
		c0.6,0.6,1.6,1,3.1,1c1.5,0,2.5-0.4,3.2-1c0.9-0.9,1.1-2.1,1.1-4.1c0-3.9-0.7-4.9-3.9-6l-5-1.8c-4.2-1.6-5.8-3.6-5.8-9.3
		c0-3.3,1.1-6,3.4-7.8c1.8-1.4,4.2-2.2,7.2-2.2c3.3,0,5.8,0.8,7.5,2.2c2.2,1.9,2.9,4.5,2.9,8h-6.6c0-1.7-0.1-2.9-1-3.9
		c-0.6-0.7-1.5-1.1-2.9-1.1c-1.3,0-2.2,0.4-2.8,1c-0.8,0.8-1.1,2-1.1,3.6c0,3,0.5,3.9,3.5,5l4.9,1.8c5,1.8,6.3,4.1,6.3,10.3
		C75.4,293.2,74.8,295.7,72.7,297.5z"/>
	<path class="st1" d="M92.1,268v31.6h-6.6V268h-7v-5.2h20.6v5.2H92.1z"/>
	<path class="st1" d="M103.9,299.6v-36.8h17.5v5.2h-11v10.4h9.4v5.2h-9.4v10.7h11v5.2H103.9z"/>
	<path class="st1" d="M142.9,299.6l-5.5-15.1h-3.7v15.1h-6.6v-36.8h10.6c7.6,0,10.7,3.3,10.7,10.9c0,4.5-1.1,7.8-4.9,9.6l6.2,16.3
		H142.9z M137.8,268h-4v11.3h4c3.5,0,4-2.6,4-5.6C141.8,270.6,141.3,268,137.8,268z"/>
	<path class="st1" d="M155.2,299.6v-36.8h6.6v36.8H155.2z M155.6,259.8v-5.2h5.8v5.2H155.6z"/>
	<path class="st1" d="M200.8,299.6v-22.9l-5.7,15.1h-3.6l-5.6-14.8v22.7h-6.6v-36.8h5.9l8.1,19.3l8-19.3h6v36.8H200.8z"/>
	<path class="st1" d="M214.4,299.6v-36.8H232v5.2h-11v10.4h9.4v5.2H221v10.7h11v5.2H214.4z"/>
	<path class="st1" d="M253.4,299.6l-5.5-15.1h-3.7v15.1h-6.6v-36.8h10.6c7.6,0,10.7,3.3,10.7,10.9c0,4.5-1.1,7.8-4.9,9.6l6.2,16.3
		H253.4z M248.3,268h-4v11.3h4c3.5,0,4-2.6,4-5.6C252.3,270.6,251.8,268,248.3,268z"/>
	<path class="st1" d="M282.2,299.6l-6.7-15.1l-3.2,5.7v9.5h-6.6v-36.8h6.6v17.3l9.1-17.3h6.6l-8.4,15.2l9.7,21.6H282.2z"/>
	<path class="st1" d="M293.2,299.6v-36.8h17.5v5.2h-11v10.4h9.4v5.2h-9.4v10.7h11v5.2H293.2z"/>
	<path class="st1" d="M314.7,299.6v-4.3l11.4-27.2h-10.7v-5.2h17.5v4.3l-11.3,27.2h11.3v5.2H314.7z"/>
	<path class="st1" d="M338.3,299.6v-36.8h6.6v36.8H338.3z M338.7,259.8v-5.2h5.8v5.2H338.7z"/>
</g>
</svg>
