<?xml version="1.0" encoding="utf-8"?>
<!-- Generator: Adobe Illustrator 26.3.1, SVG Export Plug-In . SVG Version: 6.00 Build 0)  -->
<svg version="1.1" id="Layer_1" xmlns="http://www.w3.org/2000/svg" xmlns:xlink="http://www.w3.org/1999/xlink" x="0px" y="0px"
	 viewBox="0 0 300 168.8" style="enable-background:new 0 0 300 168.8;" xml:space="preserve">
<style type="text/css">
	.st0{fill:#FF5100;}
	.st1{fill:#1D1D1B;}
</style>
<g>
	<path class="st0" d="M159,95.4c-25.1,0-45.4-20.4-45.4-45.4c0-25.1,20.4-45.4,45.4-45.4c25.1,0,45.4,20.4,45.4,45.4
		C204.5,75,184.1,95.4,159,95.4"/>
	<polygon class="st0" points="77.2,0 52.8,81.3 28.5,0 0,95 48.7,95 56.9,95 105.6,95 	"/>
	<polygon class="st0" points="300,95 284.4,95 254.2,32.3 223.9,95 208.3,95 254.2,0 	"/>
	<polygon class="st0" points="268.9,95 239.4,95 254.2,64.5 	"/>
</g>
<g>
	<path class="st1" d="M2.8,153.7c3.6,1.9,9.4,3.8,15.3,3.8c6.3,0,9.7-2.6,9.7-6.6c0-3.8-2.9-6-10.2-8.5
		c-10.1-3.6-16.9-9.2-16.9-18.1c0-10.4,8.8-18.3,23.1-18.3c7,0,12,1.4,15.6,3.1l-3.1,11.1c-2.4-1.2-6.8-2.9-12.7-2.9
		c-6,0-8.9,2.8-8.9,5.9c0,3.9,3.4,5.6,11.3,8.6c10.8,4,15.8,9.6,15.8,18.2c0,10.2-7.8,18.9-24.6,18.9c-7,0-13.9-1.9-17.3-3.8
		L2.8,153.7z"/>
	<path class="st1" d="M71.9,152.3l-4.3,15.7H53.3l18.6-61.1H90l19,61.1h-15l-4.7-15.7H71.9z M87.3,141.9l-3.8-13
		c-1.1-3.6-2.2-8.2-3.1-11.8h-0.2c-0.9,3.6-1.8,8.2-2.8,11.8l-3.6,13H87.3z"/>
	<path class="st1" d="M137.3,106.9v23.5H160v-23.5h13.8v61.1H160v-25.6h-22.7v25.6h-13.8v-61.1H137.3z"/>
	<path class="st1" d="M192.2,167.9v-61.1h16.1l12.7,22.4c3.6,6.4,7.2,14,10,20.9h0.2c-0.8-8.1-1.1-16.3-1.1-25.6v-17.8h12.7v61.1
		h-14.5l-13-23.6c-3.6-6.5-7.7-14.4-10.6-21.6h-0.4c0.5,8.2,0.6,16.8,0.6,26.7v18.4H192.2z"/>
	<path class="st1" d="M297.4,142.1h-22.5v14.5H300v11.3h-38.9v-61.1h37.6v11.3h-23.8v12.7h22.5V142.1z"/>
</g>
</svg>
