<?xml version="1.0" encoding="utf-8"?>
<!-- Generator: Adobe Illustrator 26.3.1, SVG Export Plug-In . SVG Version: 6.00 Build 0)  -->
<svg version="1.1" id="Layer_1" xmlns="http://www.w3.org/2000/svg" xmlns:xlink="http://www.w3.org/1999/xlink" x="0px" y="0px"
	 viewBox="0 0 345.8 300" style="enable-background:new 0 0 345.8 300;" xml:space="preserve">
<style type="text/css">
	.st0{fill:#FF5100;}
</style>
<g>
	<g>
		<path class="st0" d="M182.7,109.6c-28.8,0-52.2-23.4-52.2-52.2c0-28.8,23.4-52.2,52.2-52.2c28.8,0,52.2,23.4,52.2,52.2
			C234.9,86.2,211.5,109.6,182.7,109.6"/>
		<polygon class="st0" points="88.6,0 60.7,93.4 32.7,0 0,109.2 55.9,109.2 65.4,109.2 121.3,109.2 		"/>
		<polygon class="st0" points="344.7,109.2 326.8,109.2 292,37.1 257.2,109.2 239.3,109.2 292,0 		"/>
		<polygon class="st0" points="308.9,109.2 275.1,109.2 292,74.1 		"/>
	</g>
	<path d="M24.9,206.8c-8.3,0-13.6-2.5-17.3-5.8c-5.9-5.3-6.5-12.7-6.5-28.6c0-16,0.6-23.3,6.5-28.6c3.6-3.3,9-5.8,17.3-5.8
		c6.9,0,12.1,1.7,15.9,4.5c4.4,3.4,6.6,8.3,6.9,14.1h-14c-0.1-3.7-1.1-9.1-8.8-9.1c-3.4,0-5.4,1-6.6,2.6c-2.8,3.2-3.1,10-3.1,22.3
		c0,12.3,0.4,19.1,3.1,22.3c1.3,1.5,3.3,2.6,6.6,2.6c6.1,0,8.8-4,8.8-8.6v-10.5h-8.8v-8.7h22.8V188
		C47.6,200.3,38.2,206.8,24.9,206.8z"/>
	<path d="M99.6,201c-3.6,3.3-9,5.8-17.3,5.8c-8.3,0-13.6-2.5-17.3-5.8c-5.9-5.4-6.5-12.7-6.5-28.6c0-16,0.6-23.3,6.5-28.6
		c3.6-3.3,9-5.8,17.3-5.8c8.3,0,13.6,2.5,17.3,5.8c6,5.3,6.5,12.7,6.5,28.6C106.1,188.3,105.6,195.7,99.6,201z M65.2,133.2v-9.5
		h12.5v9.5H65.2z M89.1,150.1c-1.2-1.5-3.4-2.6-6.8-2.6c-3.4,0-5.4,1-6.6,2.6c-2.6,3.2-3.1,10-3.1,22.3c0,12.3,0.5,19.1,3.1,22.3
		c1.3,1.5,3.3,2.6,6.6,2.6c3.4,0,5.5-1,6.8-2.6c2.6-3.2,3-10,3-22.3C92.1,160.1,91.7,153.3,89.1,150.1z M87.1,133.2v-9.5h12.5v9.5
		H87.1z"/>
	<path d="M156,202.2c-3.6,2.6-9.5,4.4-17.4,4.4c-7.8,0-13.5-1.6-17.3-4.4c-4.3-3.2-5.8-7.4-5.8-14.5h14c0,3.6,0.5,5.9,2.5,7.6
		c1.2,1,3.4,1.8,6.5,1.8c3.3,0,5.4-0.7,6.8-1.9c1.9-1.6,2.4-3.9,2.4-7.5c0-7.2-1.5-9-8.4-11.1l-10.6-3.3c-9-2.8-12.4-6.5-12.4-16.9
		c0-6,2.4-11,7.3-14.3c3.9-2.6,8.9-4.1,15.3-4.1c7.1,0,12.4,1.4,16,4.1c4.6,3.4,6.3,8.2,6.3,14.6h-14c0-3-0.3-5.4-2.1-7.2
		c-1.2-1.2-3.3-2-6.3-2c-2.9,0-4.6,0.8-6,1.9c-1.6,1.4-2.4,3.7-2.4,6.6c0,5.5,1.1,7.2,7.4,9.1l10.5,3.2c10.6,3.3,13.5,7.6,13.5,18.9
		C161.7,194.3,160.5,198.9,156,202.2z"/>
	<path d="M197.4,148.3V206h-14v-57.7h-14.9v-9.5h43.9v9.5H197.4z"/>
	<path d="M222.5,206v-67.3h37.4v9.5h-23.4v19.1h20.1v9.5h-20.1v19.6h23.4v9.5H222.5z"/>
	<path d="M305.5,206l-11.6-27.6H286V206h-14v-67.3h22.5c16.3,0,22.8,6,22.8,19.8c0,8.3-2.3,14.3-10.4,17.6l13.3,29.9H305.5z
		 M294.6,148.3H286v20.6h8.6c7.5,0,8.6-4.7,8.6-10.3C303.3,153,302.1,148.3,294.6,148.3z"/>
	<polygon points="331.8,138.7 331.8,148.9 345.8,148.9 345.8,151.2 331.8,151.2 331.8,206 345.8,206 345.8,138.7 	"/>
	<path d="M45.9,300v-41.1l-11.9,27h-7.6l-11.6-26.5V300H1.1v-65.8h12.4l16.9,34.6l16.8-34.6h12.5V300H45.9z"/>
	<path d="M74.2,300v-65.8h36.6v9.3H87.9v18.7h19.7v9.3H87.9v19.1h22.9v9.3H74.2z"/>
	<path d="M155.5,300l-11.4-27h-7.7v27h-13.7v-65.8h22c15.9,0,22.3,5.8,22.3,19.4c0,8.1-2.2,14-10.2,17.2l13,29.2H155.5z
		 M144.8,243.5h-8.4v20.2h8.4c7.3,0,8.4-4.6,8.4-10.1C153.3,248.1,152.2,243.5,144.8,243.5z"/>
	<path d="M215.5,300l-14.1-27.1l-6.6,10.2V300h-13.7v-65.8h13.7v31l19-31h13.8l-17.5,27.3l20.2,38.6H215.5z"/>
	<path d="M238.5,300v-65.8h36.6v9.3h-22.9v18.7h19.7v9.3h-19.7v19.1h22.9v9.3H238.5z"/>
	<path d="M283.4,300v-7.8l23.7-48.7h-22.3v-9.3h36.4v7.8l-23.6,48.7h23.6v9.3H283.4z"/>
	<polygon points="331.8,232.7 331.8,242.9 345.8,242.9 345.8,245.2 331.8,245.2 331.8,300 345.8,300 345.8,232.7 	"/>
</g>
</svg>
