<?xml version="1.0" encoding="utf-8"?>
<!-- Generator: Adobe Illustrator 26.3.1, SVG Export Plug-In . SVG Version: 6.00 Build 0)  -->
<svg version="1.1" id="Layer_1" xmlns="http://www.w3.org/2000/svg" xmlns:xlink="http://www.w3.org/1999/xlink" x="0px" y="0px"
	 viewBox="0 0 99.9 100" style="enable-background:new 0 0 99.9 100;" xml:space="preserve">
<style type="text/css">
	.st0{fill:#FFFFFF;}
</style>
<g>
	<path class="st0" d="M37.5,0c1.1,0.5,2.3,0.9,3.2,1.6C42.8,3.1,44,5.2,44,7.8c0,9.4,0,18.9,0,28.3c0,4.3-3.5,7.8-7.8,7.8
		c-9.4,0-18.9,0-28.3,0C3.6,44,0,40.4,0,36.2c0-9.3,0-18.6,0-28c0-4,2.2-6.8,6.1-8c0.2,0,0.3-0.1,0.4-0.2C16.8,0,27.2,0,37.5,0z"/>
	<path class="st0" d="M99.9,37.5c-0.4,0.9-0.7,1.9-1.2,2.7c-1.5,2.4-3.7,3.8-6.6,3.8c-9.4,0-18.9,0-28.3,0c-4.3,0-7.8-3.5-7.8-7.8
		c0-9.3,0-18.6,0-27.8c0-4.1,2.1-6.9,6.1-8.1c0.2,0,0.3-0.1,0.4-0.2c10.3,0,20.7,0,31,0c1,0.4,2,0.8,2.9,1.3c2,1.2,2.9,3.1,3.6,5.2
		C99.9,16.8,99.9,27.1,99.9,37.5z"/>
	<path class="st0" d="M99.9,80.4c-0.6,2.1-1,4.2-1.8,6.2c-3.7,8.8-13,14.3-22.4,13.2c-9.9-1.1-17.8-8.4-19.5-18
		C53.7,67.6,65.6,54.6,80.1,56c10,1,18.1,8.7,19.6,18.6c0,0.2,0.2,0.4,0.2,0.5C99.9,76.9,99.9,78.7,99.9,80.4z"/>
	<path class="st0" d="M22,99.9c-4.7,0-9.3,0-14,0c-4.5,0-8-3.5-8-8c0-9.3,0-18.7,0-28c0-4.5,3.5-8,8-8c9.3,0,18.7,0,28,0
		c4.5,0,8,3.5,8,8c0,9.3,0,18.7,0,28c0,4.5-3.5,8-8,8C31.3,99.9,26.7,99.9,22,99.9z"/>
</g>
</svg>
