<?xml version="1.0" encoding="utf-8"?>
<!-- Generator: Adobe Illustrator 26.3.1, SVG Export Plug-In . SVG Version: 6.00 Build 0)  -->
<svg version="1.1" id="Layer_1" xmlns="http://www.w3.org/2000/svg" xmlns:xlink="http://www.w3.org/1999/xlink" x="0px" y="0px"
	 viewBox="0 0 79.3 100" style="enable-background:new 0 0 79.3 100;" xml:space="preserve">
<style type="text/css">
	.st0{fill:#FFFFFF;}
</style>
<g>
	<path class="st0" d="M64.8,100c-16.8,0-33.6,0-50.4,0c-0.2-0.1-0.5-0.2-0.7-0.2c-5.2-1-9.2-3.7-11.8-8.4c-1.1-2-1.6-4.1-2-6.3
		c0-1.1,0-2.2,0-3.3c0.1-0.2,0.1-0.4,0.2-0.6C0.4,77.8,0.7,74.4,1,71C1.5,64,2.1,57.1,2.6,50.2c0.6-7.8,1.3-15.6,1.9-23.4
		c0.3-4.2,3.2-7,7.4-7c2.5,0,5,0,7.5,0c0.3,0,0.6,0,0.9,0c0-0.4,0-0.6,0-0.8C20.7,10.6,25.6,3.8,33.5,1c1.4-0.5,2.8-0.7,4.2-1
		c1.3,0,2.6,0,3.9,0c0.3,0.1,0.6,0.2,0.8,0.2C50,1.3,56.3,6.9,58.3,14.3c0.5,1.7,0.6,3.6,0.9,5.5c0.2,0,0.5,0,0.8,0
		c2.5,0,5.1,0,7.6,0c4,0.1,6.9,2.9,7.2,6.8c0.5,6,0.9,12,1.4,18c0.8,10.6,1.7,21.1,2.5,31.7c0.2,1.9,0.4,3.7,0.6,5.6
		c0,1.1,0,2.2,0,3.3c-0.1,0.3-0.1,0.6-0.2,0.9c-1.1,6.1-4.5,10.5-10.3,12.8C67.6,99.4,66.2,99.6,64.8,100z M59.1,25.6
		C59,25.7,59,25.8,59,25.8c0,2.3,0,4.6,0,6.8c0,1.3-0.6,2.3-1.8,2.9c-1.9,0.8-4-0.6-4-2.7c0-2.4,0-4.7,0-7.1c-9,0-18,0-27,0
		c0,0.4,0,0.8,0,1.1c0,2,0,4,0,6.1c0,1.4-0.9,2.5-2.3,2.8c-1.2,0.3-2.5-0.2-3.1-1.3c-0.3-0.6-0.4-1.3-0.5-2c-0.1-2.2,0-4.5,0-6.8
		c-2.8,0-5.6,0-8.3,0c-1.3,0-1.6,0.3-1.7,1.6c-0.4,5.1-0.8,10.2-1.2,15.4c-0.6,7-1.1,14.1-1.7,21.1C6.9,69.8,6.5,75.9,5.9,82
		c-0.7,6.9,3.9,12.1,10.8,12.1c5.4,0,10.7,0,16.1,0c10,0,19.9,0,29.9,0c5.1,0,9.2-3.1,10.3-7.9c0.4-1.7,0.3-3.5,0.2-5.2
		c-0.4-6.1-0.9-12.3-1.4-18.4c-0.6-7-1.1-13.9-1.7-20.9c-0.4-4.9-0.8-9.9-1.2-14.8c-0.1-0.8-0.4-1.3-1.3-1.3
		C64.8,25.6,62,25.6,59.1,25.6z M53,19.7c0.4-4.5-2.2-9.4-6.6-11.9C41.7,5,36.9,5.1,32.3,8.1c-4.1,2.7-6,6.6-6.1,11.6
		C35.2,19.7,44.1,19.7,53,19.7z"/>
	<path class="st0" d="M35.6,62.7c3.7-3.7,7.3-7.3,10.9-10.9c0.6-0.6,1.3-1.3,1.9-1.9c1.4-1.4,3.2-1.5,4.4-0.2c1.2,1.2,1.1,3-0.3,4.4
		c-3.7,3.8-7.5,7.5-11.2,11.2c-1.1,1.1-2.2,2.3-3.4,3.4c-1.5,1.5-3.1,1.5-4.6,0c-2.2-2.2-4.4-4.4-6.6-6.6c-1.4-1.4-1.4-3.2-0.2-4.4
		c1.2-1.2,2.9-1.1,4.3,0.3C32.4,59.5,34,61.1,35.6,62.7z"/>
</g>
</svg>
