<?xml version="1.0" encoding="utf-8"?>
<!-- Generator: Adobe Illustrator 26.3.1, SVG Export Plug-In . SVG Version: 6.00 Build 0)  -->
<svg version="1.1" id="Layer_1" xmlns="http://www.w3.org/2000/svg" xmlns:xlink="http://www.w3.org/1999/xlink" x="0px" y="0px"
	 viewBox="0 0 145.6 100" style="enable-background:new 0 0 145.6 100;" xml:space="preserve">
<style type="text/css">
	.st0{fill:#FFFFFF;}
</style>
<g>
	<path class="st0" d="M143.8,100c-47.8,0-95.7,0-143.6,0c0-9.6,0-19.3,0-28.9c0.7-1.1,1.5-1.8,2.9-1.8c5.2-0.3,9-4.3,9.1-9.4
		c0-5.1-3.7-9.3-8.8-9.7c-2.3-0.2-2.8-0.8-2.8-3c0-8.3,0-16.5,0-24.8c0-2.1,0.5-2.7,2.6-3c11.1-1.7,22.2-3.3,33.4-5
		c12.4-1.9,24.8-3.7,37.3-5.6C86.5,6.7,99.3,4.8,112,3c6.5-1,13-1.9,19.5-2.9c2.5-0.3,3.1,0.2,3.4,2.7c0.3,2.3,0.6,4.6,1,6.9
		c0.5,3.2,1,6.3,1.4,9.5c1.7,0,3.4,0,5,0c2.3,0,3,0.7,3,3c0,8.3,0,16.5,0,24.8c0,2.3-0.6,2.9-2.8,3c-5.1,0.4-9,4.5-9,9.6
		c0,5.1,3.8,9.2,9,9.6c2.1,0.2,2.8,0.9,2.8,3c0,8.2,0,16.4,0,24.7C145.4,98.2,144.9,99.3,143.8,100z M4.9,46
		c0.4,0.1,0.6,0.1,0.9,0.2c6.5,1.7,10.9,7.1,10.9,13.5c0,6.3-4.3,11.8-10.7,13.5c-0.9,0.2-1.1,0.6-1.1,1.4c0,6.7,0,13.4,0,20.1
		c0,0.3,0.1,0.7,0.1,1c33.4,0,66.7,0,100.1,0c0-1.8-0.1-3.5,0-5.2c0.1-0.8,0.4-1.7,1-2.2c0.4-0.4,1.6-0.5,2.1-0.2
		c0.6,0.5,1.2,1.4,1.3,2.2c0.2,1.8,0.1,3.6,0.1,5.5c10.6,0,21,0,31.5,0c0.1-0.2,0.1-0.4,0.1-0.5c0-7,0-13.9,0-20.9
		c0-0.9-0.5-1-1.2-1.2c-6.4-1.7-10.4-6.8-10.5-13.5c-0.1-6.3,4.2-11.9,10.5-13.5c1.1-0.3,1.3-0.7,1.3-1.7c0-6.5,0-13,0-19.5
		c0-0.4-0.1-0.9-0.1-1.4c-10.6,0-21,0-31.6,0c0,1.8,0,3.4,0,5.1c0,1.9-0.8,2.8-2.2,2.8c-1.4,0-2.1-0.9-2.1-2.8c0-1.7,0-3.3,0-5
		c-33.6,0-66.9,0-100.4,0C4.9,31.2,4.9,38.5,4.9,46z M101.9,8.9c0.3,2,0.6,3.7,0.8,5.5c0.2,1.5-0.6,2.6-1.9,2.6
		c-1.3,0.1-2.1-0.6-2.4-1.9c-0.3-1.8-0.6-3.7-0.9-5.6c-21.5,3.2-42.8,6.4-64.2,9.6c0,0,0,0.1,0,0.1c33.2,0,66.4,0,99.6,0
		c-0.7-4.9-1.5-9.7-2.2-14.6C121.2,6,111.6,7.4,101.9,8.9z"/>
	<path class="st0" d="M54.5,55.2c-8.4,0-16.9,0-25.3,0c-0.6,0-1.1,0-1.7-0.1c-1-0.3-1.6-1-1.6-2.1c0-1.1,0.6-1.8,1.7-2
		c0.5-0.1,1.1-0.1,1.7-0.1c16.9,0,33.8,0,50.7,0c0.3,0,0.5,0,0.8,0c1.6,0.1,2.6,0.9,2.6,2.2c0,1.3-1,2.2-2.7,2.2
		C71.9,55.2,63.2,55.2,54.5,55.2z"/>
	<path class="st0" d="M54.6,77.8c8.4,0,16.9,0,25.3,0c0.6,0,1.1,0,1.7,0.1c1.1,0.3,1.8,1,1.7,2.2c-0.1,1.1-0.7,1.8-1.8,2
		c-0.5,0.1-1,0.1-1.5,0.1c-16.9,0-33.9,0-50.8,0c-0.5,0-0.9,0-1.4-0.1c-1.2-0.2-1.9-0.9-1.9-2.2c0-1.2,0.8-1.9,2-2.1
		c0.4-0.1,0.9,0,1.4,0C37.7,77.8,46.1,77.8,54.6,77.8z"/>
	<path class="st0" d="M54.7,64.3c8.4,0,16.8,0,25.2,0c0.5,0,1,0,1.5,0c1.2,0.2,1.9,1,1.9,2.2c0,1.2-0.7,1.9-1.8,2.1
		c-0.5,0.1-1,0-1.5,0c-16.9,0-33.8,0-50.7,0c-2.3,0-3.3-0.7-3.4-2.1c0-1.5,1-2.2,3.3-2.2C37.7,64.3,46.2,64.3,54.7,64.3z"/>
	<path class="st0" d="M41.5,37.2c4.2,0,8.4,0,12.5,0c1.9,0,2.8,0.7,2.8,2.1c0,1.4-1,2.2-2.7,2.2c-8.5,0-16.9,0-25.4,0
		c-1.8,0-2.8-0.8-2.8-2.1c0-1.4,1-2.2,2.9-2.2C33,37.2,37.2,37.2,41.5,37.2z"/>
	<path class="st0" d="M109.5,47.3c0,2.2,0,4.4,0,6.5c0,1.8-0.8,2.7-2.3,2.7c-1.4,0-2.2-1-2.2-2.7c0-4.3,0-8.5,0-12.8
		c0-1.8,0.9-2.8,2.3-2.8c1.4,0,2.1,1,2.2,2.7C109.5,43,109.5,45.1,109.5,47.3z"/>
	<path class="st0" d="M105.1,72.1c0-2.1,0-4.3,0-6.4c0-1.7,0.9-2.7,2.2-2.8c1.3,0,2.2,1,2.3,2.7c0,4.4,0,8.7,0,13.1
		c0,1.6-0.9,2.6-2.2,2.6c-1.3,0-2.2-1-2.3-2.7C105.1,76.5,105.1,74.3,105.1,72.1z"/>
</g>
</svg>
