<?xml version="1.0" encoding="utf-8"?>
<!-- Generator: Adobe Illustrator 26.3.1, SVG Export Plug-In . SVG Version: 6.00 Build 0)  -->
<svg version="1.1" id="Layer_1" xmlns="http://www.w3.org/2000/svg" xmlns:xlink="http://www.w3.org/1999/xlink" x="0px" y="0px"
	 viewBox="0 0 75.1 100" style="enable-background:new 0 0 75.1 100;" xml:space="preserve">
<style type="text/css">
	.st0{fill:#FFFFFF;}
</style>
<g>
	<path class="st0" d="M73.6,100c-0.3,0-0.7,0-1,0c-0.5-0.4-1.1-0.8-1.6-1.3c-0.6-0.6-1.2-1.3-1.7-2c-0.5-0.7-1.1-0.9-2-0.9
		c-19.8,0-39.6,0-59.4,0c-0.9,0-1.5,0.3-2.2,1c-1,1.1-2.1,2.1-3.2,3.2c-0.3,0-0.7,0-1,0c-0.5-0.5-1-1-1.6-1.6c0-0.4,0-0.8,0-1.2
		c3.9-4.6,7.7-9.1,11.5-13.6c-1.8-1.1-3.6-2.1-5.3-3.2c-1.2-0.9-2.1-2.1-2-3.7C4.6,70,5.1,63.3,5.5,56.5c0.8-11.2,1.5-22.5,2.3-33.7
		c0.4-6.2,4.8-10.3,11-10.3c4.6,0,9.3,0,13.9,0c0.3,0,0.7,0,1.2,0c-1.6-2.7-3.1-5.2-4.7-7.8C25.8,5.3,22.6,6,19.8,8
		c-0.7,0.5-1.9,0.3-2.5-0.4c-0.6-0.7-0.8-1.8-0.1-2.5c0.4-0.5,1-1,1.6-1.4c2.7-1.7,5.7-2.4,8.8-2.9c5.9-1,11.9-1,17.8-0.3
		c3.3,0.4,6.5,1,9.5,2.5c1,0.5,1.9,1.1,2.8,1.8c0.9,0.7,0.9,2,0.3,2.8c-0.7,0.9-1.9,1.1-2.8,0.4c-2.8-2.1-6-2.6-9.3-3.2
		c-1.6,2.6-3.1,5.1-4.7,7.8c0.5,0,0.9,0,1.2,0c4.9,0,9.8,0,14.7,0c5.2,0.1,9.8,4.3,10.1,9.5c0.7,9.7,1.3,19.4,2,29.1
		c0.6,8.3,1.1,16.7,1.7,25c0.1,1.4-0.3,2.6-1.2,3.5c-0.7,0.7-1.4,1.3-2.2,1.8c-1.3,0.8-2.6,1.4-3.9,2.1c3.9,4.6,7.7,9.1,11.6,13.7
		c0,0.4,0,0.8,0,1.2C74.6,99,74.1,99.5,73.6,100z M37.6,20.9c-5,0-10,0-15.1,0c-3.8,0-6.4,2.4-6.6,6.1c-0.5,6.8-0.8,13.6-1.3,20.4
		c-0.1,1.3,0.4,2.3,1.4,3c0.6,0.4,1.2,0.8,1.9,1.1c3.2,1.4,6.6,1.8,10,2.2c7.5,0.7,14.9,0.7,22.3-0.4c2.8-0.4,5.7-0.9,8.2-2.5
		c1.4-0.9,2.2-2,2.1-3.8c-0.4-6.5-0.8-13-1.2-19.6c-0.2-4.2-2.7-6.6-6.9-6.6C47.4,20.9,42.5,20.9,37.6,20.9z M64.9,91.6
		c-0.9-1.1-1.8-2-2.5-3c-0.6-0.9-1.4-1.2-2.5-1.2c-8.6,0.1-17.2,0-25.8,0c-6.6,0-13.2,0-19.8-0.1c-0.1,0-0.4,0-0.4,0.1
		c-1.1,1.3-2.3,2.6-3.5,4.1C28.5,91.6,46.6,91.6,64.9,91.6z M12.5,68.6c-0.1,3.4,2.7,6.3,6.2,6.4c3.4,0.1,6.2-2.7,6.3-6.1
		c0.1-3.4-2.7-6.3-6.2-6.4C15.5,62.4,12.6,65.2,12.5,68.6z M56.3,62.5c-3.4,0-6.2,2.8-6.2,6.2c0,3.4,2.8,6.3,6.3,6.3
		c3.4,0,6.3-2.9,6.2-6.3C62.6,65.3,59.7,62.5,56.3,62.5z M37.6,70.9c1.8,0,3.6,0,5.5,0c0.4,0,0.8,0,1.3-0.1c0.9-0.2,1.4-0.9,1.5-1.8
		c0.1-0.9-0.3-1.7-1.2-2c-0.4-0.2-0.9-0.2-1.3-0.2c-3.8,0-7.7,0-11.5,0c-0.3,0-0.6,0.1-1,0.1c-0.8,0.2-1.4,0.7-1.5,1.6
		c-0.3,1.4,0.7,2.5,2.3,2.5C33.6,70.9,35.6,70.8,37.6,70.9z M33.8,4.3c1.3,2.1,2.5,4.1,3.8,6.3c1.3-2.1,2.5-4.1,3.8-6.3
		C38.7,4.3,36.4,4.3,33.8,4.3z"/>
	<path class="st0" d="M18.8,66.7c1.1,0,2,1,2,2.1c0,1.1-1,2-2.1,2c-1.1,0-2.1-1-2.1-2.1C16.8,67.6,17.7,66.7,18.8,66.7z"/>
	<path class="st0" d="M58.4,68.8c0,1.1-1,2-2.1,2c-1.1,0-2.1-1-2.1-2.1c0-1.1,1-2,2.1-2C57.5,66.7,58.4,67.7,58.4,68.8z"/>
</g>
</svg>
