<?xml version="1.0" encoding="utf-8"?>
<!-- Generator: Adobe Illustrator 26.3.1, SVG Export Plug-In . SVG Version: 6.00 Build 0)  -->
<svg version="1.1" id="Layer_1" xmlns="http://www.w3.org/2000/svg" xmlns:xlink="http://www.w3.org/1999/xlink" x="0px" y="0px"
	 viewBox="0 0 100 59.2" style="enable-background:new 0 0 100 59.2;" xml:space="preserve">
<style type="text/css">
	.st0{fill:#FFFFFF;}
</style>
<g>
	<path class="st0" d="M100,31.7c0,1.4,0,2.9,0,4.3c-0.1,0.7-0.2,1.4-0.4,2.1c-1.9,10.4-8.1,17-18.1,20.1c-1.8,0.6-3.8,0.7-5.7,1
		c-0.7,0-1.4,0-2.1,0c-0.3-0.1-0.5-0.1-0.8-0.2c-6.7-0.7-12.3-3.5-16.8-8.5c-0.2-0.3-0.5-0.5-0.8-0.9c-1.8,2.7-3.5,5.3-5.3,7.9
		c-1.8-2.7-3.5-5.3-5.2-7.8c-0.2,0.1-0.3,0.1-0.3,0.2c-0.2,0.2-0.4,0.5-0.7,0.7c-6,6.5-13.5,9.3-22.3,8.1
		C3.3,56.1-5.9,35.5,4.3,20.2c0.5-0.7,0.6-1.4,0.3-2.2c-0.9-2.8-2.3-5.3-3.9-7.7C0.5,10,0.3,9.7,0,9.3c0.4,0,0.7,0,0.9,0
		c4.6,0,9.1,0,13.7,0c0.7,0,1.4-0.3,2.1-0.6c3.2-1.5,6.3-3.4,9.6-4.6c9.5-3.6,19.3-4.6,29.3-3.8c9.7,0.8,18.7,3.5,27,8.5
		c0.5,0.3,1.2,0.4,1.8,0.4c4.6,0,9.1,0,13.7,0c0.5,0,1.1,0,1.7,0c-0.5,0.8-0.9,1.3-1.2,1.9c-1.1,2.3-2.3,4.7-3.4,7
		c-0.3,0.7-0.2,1.3,0.3,2c1.7,2.5,3,5.2,3.7,8.2C99.6,29.4,99.8,30.6,100,31.7z M74.9,54.1c11.1,0,20-8.9,20-19.9
		c0-11-8.9-19.9-19.9-19.9c-11.1,0-20,8.9-20,19.9C55,45.1,64,54.1,74.9,54.1z M45,34.1c0-11.1-8.8-19.9-19.9-20
		c-11,0-19.9,8.9-20,19.8c0,10.9,8.9,19.9,19.9,19.9C36,54,45,45.1,45,34.1z M26.6,8.7c12.7,1.8,20.5,8.9,23.5,21.5
		c1.1-5.9,3.7-10.8,8-14.7c4.3-3.9,9.4-6,15.2-6.7C57.7,2.8,42.1,3,26.6,8.7z"/>
	<path class="st0" d="M74.9,21.5c6.9,0.1,12.4,5.6,12.4,12.4c-0.1,6.8-5.7,12.3-12.5,12.2c-6.8-0.1-12.3-5.6-12.2-12.5
		C62.6,26.9,68.1,21.4,74.9,21.5z M74.9,41.9c4.4,0,8.1-3.6,8.1-8c0-4.4-3.6-8.1-8.1-8.1c-4.5,0-8.1,3.6-8.1,8
		C66.8,38.2,70.5,41.9,74.9,41.9z"/>
	<path class="st0" d="M24.8,46.2c-6.8,0-12.4-5.5-12.4-12.3c0-6.8,5.5-12.4,12.3-12.4c7,0,12.4,5.4,12.4,12.3
		C37.1,40.6,31.6,46.2,24.8,46.2z M24.8,41.9c4.4,0,8-3.7,8-8.1c0-4.4-3.6-8-8.1-8c-4.4,0-8,3.6-8.1,8
		C16.6,38.2,20.3,41.9,24.8,41.9z"/>
	<path class="st0" d="M74.9,29.7c2.3,0,4.1,1.8,4.1,4.1c0,2.3-1.9,4.1-4.1,4.1c-2.3,0-4.1-1.9-4.1-4.1
		C70.8,31.5,72.6,29.7,74.9,29.7z"/>
	<path class="st0" d="M24.8,29.7c2.3,0,4.1,1.9,4.1,4.2c0,2.3-1.9,4.1-4.2,4.1c-2.3,0-4-1.8-4-4.1C20.7,31.4,22.4,29.7,24.8,29.7z"
		/>
</g>
</svg>
