<?xml version="1.0" encoding="utf-8"?>
<!-- Generator: Adobe Illustrator 26.3.1, SVG Export Plug-In . SVG Version: 6.00 Build 0)  -->
<svg version="1.1" id="Layer_1" xmlns="http://www.w3.org/2000/svg" xmlns:xlink="http://www.w3.org/1999/xlink" x="0px" y="0px"
	 viewBox="0 0 100.2 100" style="enable-background:new 0 0 100.2 100;" xml:space="preserve">
<style type="text/css">
	.st0{fill:#FF5000;}
</style>
<path class="st0" d="M48.5,95c-2.2-0.3-4.3-0.5-6.5-1c-4.4-0.9-8.4-2.6-12.2-5.1c-0.2-0.1-0.4-0.2-0.6-0.4c-1.1,1.2-2.2,2.3-3.3,3.5
	c-1.1,1.1-2.3,1.3-3.2,0.4c-0.9-0.9-0.8-2,0.2-3.1s1.9-2.1,2.9-3.2c-8.9-8-13.5-17.9-13.1-29.9C13.1,46.4,16.8,37.9,24,31
	c14.9-14.1,37.4-14,52,0c15.1,14.5,15.6,40.4-1.8,55.1c1,1.1,2,2.1,2.9,3.2c1.1,1.2,1.1,2.4,0.1,3.2c-0.9,0.8-2.1,0.6-3.1-0.5
	c-1.1-1.2-2.2-2.3-3.3-3.5c-3.6,2.4-7.4,4.2-11.5,5.2c-2.2,0.5-4.4,0.7-6.5,1.1c-0.4,0.1-0.8,0.1-1.2,0.2C50.6,95,49.6,95,48.5,95z
	 M17,57.7C17,76,31.8,90.9,50.1,90.9s33.1-14.8,33.1-33.1S68.4,24.7,50.1,24.7C31.8,24.6,17,39.4,17,57.7z"/>
<path class="st0" d="M5.5,27.8c0.3-5.6,3.2-10.5,9.1-13.1s11.5-1.6,16.5,2.5c1.7,1.4,1.6,2.4,0.1,4c-6,6-12,12-17.9,17.9
	c-1.5,1.5-2.5,1.4-3.9-0.1C6.8,36,5.5,32.6,5.5,27.8z M11.4,34.8c5.2-5.2,10.4-10.4,15.6-15.6c-4-3.1-10.6-2.4-14.4,1.6
	C8.9,24.8,8.4,31.4,11.4,34.8z"/>
<path class="st0" d="M94.7,28c-0.1,4.8-1.4,8.3-4.1,11.2c-1.2,1.3-2.3,1.3-3.5,0.1C81,33.2,74.9,27,68.7,20.9
	c-1.3-1.3-1.2-2.4,0.3-3.7c5-4.3,10.6-5.3,16.6-2.6S94.5,22.2,94.7,28z M73.1,19.3c5.2,5.2,10.4,10.4,15.6,15.6
	c3.1-3.7,2.5-10.4-1.3-14.2C83.6,16.8,76.9,16.2,73.1,19.3z"/>
<path class="st0" d="M41.9,16.1c-0.5,0.5-0.9,1.2-1.4,1.6c-0.7,0.4-1.7,0.3-2.2-0.4c-1.5-1.9-2.9-3.8-4.2-5.8
	c-0.6-0.9-0.3-2,0.6-2.6c0.8-0.6,2-0.6,2.6,0.2c1.5,1.9,2.9,3.8,4.2,5.8c0.2,0.3,0.2,0.6,0.3,0.9C41.8,15.9,41.9,16,41.9,16.1z"/>
<path class="st0" d="M60.8,17.9c-1.9,0-2.9-1.7-2.1-3c1.3-2,2.7-3.9,4.2-5.7c0.6-0.8,1.7-0.9,2.6-0.3c0.9,0.6,1.2,1.7,0.6,2.6
	c-1.3,1.9-2.7,3.8-4.2,5.7C61.7,17.6,61.1,17.8,60.8,17.9z"/>
<path class="st0" d="M52.1,10.4c0,1.1,0,2.1,0,3.2c0,1.2-0.8,2-2,2.1c-1.2,0-2-0.8-2-2c0-2.2,0-4.3,0-6.5c0-1.2,0.9-2.1,2-2.1
	s2,0.8,2,2C52.1,8.2,52.1,9.3,52.1,10.4z"/>
<path class="st0" d="M51.4,52c0.1,0,0.5,0.1,0.8,0.2c1.1,0.7,1.9,0.3,2.8-0.3c2.7-1.8,9.7-6.9,12.1-8.5c1.3-0.9,2.5-0.8,3.2,0.3
	c0.7,1,0.4,2.1-0.9,3c-2.6,1.8-9.9,6.8-12.6,8.9c-0.6,0.4-0.9,0.8-0.8,1.6c0.4,2.5-1.1,5-3.4,6c-2.3,1-5.1,0.5-6.8-1.4
	c-1.7-1.8-2-4.6-0.8-6.8C46.2,52.6,48.7,51.5,51.4,52z M51.9,58c0.2-1-0.4-1.9-1.4-2.2c-1-0.2-1.9,0.4-2.2,1.3
	c-0.2,1.1,0.3,2,1.4,2.2C50.8,59.7,51.7,59.1,51.9,58z"/>
<path class="st0" d="M48.1,84c0-0.5,0-1,0-1.5c0.1-1,1-1.7,2-1.7s1.9,0.7,2,1.7c0.1,1.1,0.1,2.1,0,3.2s-1,1.8-2,1.8
	s-1.8-0.8-1.9-1.8C48.1,85.1,48.1,84.6,48.1,84L48.1,84z"/>
<path class="st0" d="M23.7,59.7c-0.5,0-1,0-1.4,0c-1.1-0.1-1.8-0.9-1.8-2c0-1,0.8-1.9,1.8-2s2.1-0.1,3.1,0s1.7,0.9,1.8,1.9
	c0,1.1-0.7,1.9-1.8,2.1C24.8,59.8,24.2,59.7,23.7,59.7L23.7,59.7z"/>
<path class="st0" d="M76.5,59.7c-0.4,0-0.9,0-1.3,0c-1.2-0.1-2.1-0.8-2.1-2s0.8-2,2-2c0.9,0,1.8,0,2.7,0c1.2,0,2,0.9,2,2
	s-0.9,1.9-2.1,2C77.3,59.7,76.9,59.7,76.5,59.7z"/>
<path class="st0" d="M52.1,31.4c0,0.5,0,1,0,1.4c-0.1,1.1-0.9,1.8-2,1.8s-1.9-0.7-2-1.8c-0.1-1-0.1-2.1,0-3.1c0.1-1.1,1-1.8,2-1.8
	s1.8,0.7,1.9,1.8C52.1,30.3,52.1,30.9,52.1,31.4L52.1,31.4z"/>
<path class="st0" d="M44.2,58.3c0-0.1-0.1-0.5,0-0.8c0.3-1.3-0.2-1.9-1.1-2.6c-2.3-1.6-4.5-3.5-6.7-5.2c-1.2-1-1.5-2.1-0.7-3.1
	s1.9-1,3.1-0.1c2.5,1.9,4.8,3.7,7.3,5.6c0.6,0.4,1,0.6,1.7,0.3c2.3-1.1,5.1-0.5,6.7,1.5c1.7,1.9,2,4.7,0.7,6.9
	C54,62.9,51.4,64,49,63.5C46.4,63,44.6,60.9,44.2,58.3z M49.9,55.9c-1,0.1-1.7,0.9-1.7,2c0.1,1,0.9,1.7,1.9,1.7
	c1.1-0.1,1.8-0.9,1.7-2C51.7,56.5,51,55.8,49.9,55.9z"/>
</svg>
